<svg id="svg" version="1.1" xmlns="http://www.w3.org/2000/svg" xmlns:xlink="http://www.w3.org/1999/xlink" width="400" height="400" viewBox="0, 0, 400,400"><g id="svgg"><path id="path0" d="M126.000 129.600 C 126.000 129.820,125.595 130.006,125.100 130.013 C 123.988 130.028,123.172 130.667,122.432 132.100 C 122.120 132.705,121.715 133.200,121.532 133.200 C 120.682 133.200,121.197 138.121,122.183 139.413 C 122.723 140.121,123.038 140.842,122.883 141.015 C 122.727 141.187,122.798 141.216,123.040 141.078 C 123.282 140.940,123.717 141.271,124.007 141.814 C 125.480 144.566,134.000 142.329,134.000 139.190 C 134.000 138.729,134.151 138.446,134.335 138.560 C 134.519 138.674,134.709 137.694,134.756 136.383 C 134.808 134.928,134.678 134.000,134.421 134.000 C 134.189 134.000,134.000 133.724,134.000 133.386 C 134.000 132.296,132.844 130.966,131.404 130.402 C 130.632 130.099,130.000 129.704,130.000 129.525 C 130.000 129.346,129.100 129.200,128.000 129.200 C 126.900 129.200,126.000 129.380,126.000 129.600 M230.750 223.800 C 230.722 223.910,230.655 224.180,230.600 224.400 C 230.545 224.620,230.478 224.980,230.450 225.200 C 230.370 225.842,229.600 225.660,229.600 225.000 C 229.600 224.670,229.350 224.400,229.044 224.400 C 228.739 224.400,228.514 224.690,228.544 225.045 C 228.618 225.892,227.493 226.598,226.609 226.259 C 226.150 226.083,225.981 225.717,226.117 225.195 C 226.403 224.100,225.333 224.152,224.984 225.250 C 224.816 225.781,224.918 226.236,225.257 226.462 C 225.609 226.697,225.404 226.732,224.675 226.563 C 223.750 226.347,223.512 226.450,223.330 227.147 C 223.153 227.824,222.906 227.942,222.095 227.738 C 221.411 227.566,221.169 227.626,221.351 227.921 C 221.536 228.221,221.115 228.297,220.011 228.164 C 218.718 228.008,218.400 228.097,218.400 228.612 C 218.400 229.084,218.176 229.183,217.553 228.985 C 216.937 228.790,216.758 228.864,216.899 229.258 C 217.156 229.979,216.461 231.285,215.980 230.988 C 215.771 230.858,215.600 230.963,215.600 231.220 C 215.600 231.522,215.236 231.595,214.566 231.427 C 213.896 231.259,213.623 231.314,213.790 231.584 C 213.932 231.813,214.322 232.000,214.657 232.000 C 215.785 232.000,214.950 232.998,213.652 233.200 C 212.946 233.310,212.376 233.580,212.384 233.800 C 212.400 234.189,212.258 234.245,211.000 234.350 C 210.670 234.378,210.400 234.601,210.400 234.847 C 210.400 235.093,209.860 235.909,209.200 236.661 C 208.540 237.413,208.000 238.223,208.000 238.461 C 208.000 238.700,207.633 238.797,207.177 238.678 C 206.502 238.502,206.439 238.565,206.826 239.031 C 207.190 239.470,207.184 239.738,206.800 240.200 C 206.148 240.986,205.616 240.958,204.922 240.100 C 204.410 239.467,204.397 239.485,204.787 240.291 C 205.299 241.349,204.650 242.667,203.426 243.055 C 202.677 243.293,202.676 243.320,203.385 243.838 C 204.091 244.355,204.087 244.402,203.275 245.088 C 202.730 245.547,202.390 246.367,202.315 247.400 C 202.195 249.066,201.495 249.966,200.300 249.987 C 199.915 249.994,199.600 250.260,199.600 250.577 C 199.600 250.913,199.895 251.097,200.307 251.018 C 201.046 250.876,201.062 250.961,201.195 255.600 C 201.265 258.017,201.066 258.816,200.247 259.415 C 199.726 259.796,199.685 259.970,200.079 260.128 C 200.473 260.286,200.478 260.345,200.100 260.368 C 199.257 260.422,199.544 261.600,200.400 261.600 C 200.844 261.600,201.200 261.867,201.200 262.200 C 201.200 262.530,201.020 262.800,200.800 262.800 C 199.982 262.800,200.434 263.949,201.300 264.072 C 202.397 264.228,202.888 266.400,201.827 266.400 C 201.482 266.400,201.200 266.580,201.200 266.800 C 201.200 267.020,201.554 267.200,201.986 267.200 C 202.809 267.200,203.770 268.496,203.298 268.969 C 203.147 269.120,203.198 269.369,203.412 269.522 C 204.271 270.138,205.272 272.804,205.299 274.549 C 205.329 276.533,206.094 277.101,206.580 275.500 C 206.788 274.818,206.910 274.745,207.086 275.200 C 207.214 275.530,207.742 276.309,208.260 276.931 C 208.777 277.553,209.200 278.318,209.200 278.631 C 209.200 278.944,209.470 279.200,209.800 279.200 C 210.130 279.200,210.400 279.380,210.400 279.600 C 210.400 279.820,210.130 280.000,209.800 280.000 C 209.470 280.000,209.200 280.290,209.200 280.643 C 209.200 281.129,209.444 281.225,210.193 281.038 C 210.930 280.853,211.316 280.996,211.689 281.594 C 211.966 282.037,212.499 282.400,212.873 282.400 C 213.247 282.400,213.664 282.580,213.800 282.800 C 213.936 283.020,214.400 283.200,214.831 283.200 C 215.477 283.200,215.574 283.394,215.380 284.300 C 215.158 285.341,215.178 285.359,215.759 284.643 C 216.267 284.015,216.713 283.926,218.360 284.121 C 219.726 284.283,220.400 284.207,220.516 283.878 C 220.632 283.547,220.935 283.623,221.500 284.124 C 222.021 284.586,222.371 284.686,222.467 284.399 C 222.575 284.074,222.924 284.067,223.736 284.376 C 224.352 284.610,225.248 284.707,225.728 284.591 C 226.207 284.475,228.540 284.233,230.910 284.053 C 234.358 283.790,235.327 283.580,235.750 283.001 C 236.041 282.603,236.487 282.407,236.742 282.564 C 236.997 282.722,237.773 282.447,238.466 281.953 C 239.159 281.459,240.135 281.038,240.634 281.016 C 241.872 280.962,243.200 279.679,243.200 278.538 C 243.200 278.022,243.380 277.600,243.600 277.600 C 243.820 277.600,244.000 277.792,244.000 278.027 C 244.000 278.262,244.585 278.046,245.300 277.547 C 247.333 276.128,251.600 271.917,251.600 271.330 C 251.600 271.038,251.802 270.800,252.049 270.800 C 252.356 270.800,252.371 270.642,252.095 270.300 C 251.657 269.756,252.067 268.253,252.772 267.817 C 253.007 267.672,253.200 267.290,253.200 266.968 C 253.200 266.647,253.683 265.623,254.274 264.692 C 255.062 263.451,255.430 262.201,255.656 260.000 C 255.826 258.350,256.152 255.650,256.382 254.000 C 256.612 252.350,256.762 247.280,256.714 242.733 L 256.627 234.466 255.214 233.754 C 253.937 233.112,253.888 233.028,254.700 232.893 C 255.195 232.811,255.600 232.592,255.600 232.405 C 255.600 232.218,255.696 231.816,255.813 231.512 C 255.973 231.094,255.703 230.992,254.713 231.098 C 253.668 231.209,253.107 230.964,251.964 229.898 C 251.174 229.161,250.319 228.627,250.064 228.712 C 249.809 228.797,249.600 228.672,249.600 228.433 C 249.600 228.195,249.317 228.000,248.971 228.000 C 248.626 228.000,248.073 227.730,247.743 227.400 C 247.395 227.052,246.418 226.800,245.420 226.800 C 243.556 226.800,242.544 226.043,242.960 224.960 C 243.169 224.415,242.997 224.347,241.905 224.542 C 237.952 225.249,230.470 224.857,231.017 223.972 C 231.144 223.768,231.147 223.600,231.024 223.600 C 230.901 223.600,230.778 223.690,230.750 223.800 M236.500 223.876 C 236.885 223.976,237.515 223.976,237.900 223.876 C 238.285 223.775,237.970 223.693,237.200 223.693 C 236.430 223.693,236.115 223.775,236.500 223.876 M245.206 225.300 C 245.211 226.028,245.286 226.085,245.600 225.600 C 246.101 224.824,246.101 224.400,245.600 224.400 C 245.380 224.400,245.203 224.805,245.206 225.300 M208.276 240.619 C 208.617 240.960,208.792 241.341,208.667 241.467 C 208.436 241.697,207.200 240.653,207.200 240.229 C 207.200 239.824,207.641 239.984,208.276 240.619 " stroke="none" fill="#07cc9d" fill-rule="evenodd"></path><path id="path1" d="M113.300 109.700 C 113.392 109.975,113.707 110.200,114.000 110.200 C 114.293 110.200,114.608 109.975,114.700 109.700 C 114.799 109.403,114.516 109.200,114.000 109.200 C 113.484 109.200,113.201 109.403,113.300 109.700 M274.400 109.600 C 274.400 109.820,274.670 110.000,275.000 110.000 C 275.330 110.000,275.600 109.820,275.600 109.600 C 275.600 109.380,275.330 109.200,275.000 109.200 C 274.670 109.200,274.400 109.380,274.400 109.600 M110.800 110.400 C 110.800 110.620,111.070 110.800,111.400 110.800 C 111.730 110.800,112.000 110.620,112.000 110.400 C 112.000 110.180,111.730 110.000,111.400 110.000 C 111.070 110.000,110.800 110.180,110.800 110.400 M269.530 110.992 C 269.459 111.058,234.570 111.214,192.000 111.340 C 149.430 111.466,113.970 111.681,113.200 111.817 C 111.364 112.142,110.107 112.739,108.409 114.092 C 107.644 114.701,106.699 115.200,106.309 115.200 C 105.919 115.200,105.600 115.393,105.600 115.628 C 105.600 116.051,103.304 119.614,102.783 120.000 C 102.634 120.110,102.271 120.875,101.976 121.700 C 101.299 123.593,100.040 123.726,100.363 121.870 C 100.394 121.689,100.235 121.655,100.010 121.794 C 99.784 121.933,99.600 122.397,99.600 122.824 C 99.600 123.251,99.420 123.600,99.200 123.600 C 98.980 123.600,98.800 123.881,98.800 124.224 C 98.800 124.606,98.993 124.738,99.300 124.565 C 99.700 124.339,99.700 124.390,99.300 124.821 C 98.656 125.515,98.556 271.402,99.200 271.800 C 99.783 272.160,99.691 272.893,99.100 272.594 C 98.825 272.455,98.877 272.579,99.215 272.870 C 99.553 273.162,99.764 273.715,99.685 274.100 C 99.606 274.485,99.698 274.800,99.889 274.800 C 100.080 274.800,100.281 275.475,100.336 276.300 C 100.390 277.125,100.607 277.860,100.818 277.933 C 101.028 278.007,101.200 278.468,101.200 278.958 C 101.200 279.448,101.560 280.236,102.000 280.708 C 102.440 281.180,102.800 281.825,102.800 282.140 C 102.800 282.754,103.875 283.379,104.700 283.246 C 104.975 283.201,105.200 283.363,105.200 283.606 C 105.200 283.849,105.020 283.936,104.800 283.800 C 104.580 283.664,104.400 283.743,104.400 283.976 C 104.400 284.209,104.683 284.400,105.029 284.400 C 105.374 284.400,105.959 284.704,106.329 285.075 C 106.958 285.708,107.008 285.695,107.128 284.875 C 107.291 283.759,107.660 283.775,109.575 284.984 C 110.432 285.525,111.600 286.085,112.171 286.228 C 112.741 286.372,113.306 286.649,113.427 286.844 C 113.548 287.040,114.147 287.200,114.757 287.200 C 115.367 287.200,115.974 287.308,116.106 287.439 C 116.568 287.901,115.926 288.747,115.267 288.545 C 114.727 288.379,114.738 288.428,115.324 288.803 C 115.723 289.058,116.302 289.170,116.613 289.050 C 116.923 288.931,117.439 289.096,117.760 289.417 C 118.567 290.224,185.596 290.306,185.606 289.500 C 185.610 289.144,185.697 289.130,185.906 289.452 C 186.353 290.139,192.400 290.057,192.400 289.364 C 192.400 289.039,192.649 288.921,193.027 289.066 C 193.905 289.403,195.600 288.408,195.600 287.556 C 195.600 287.166,195.780 286.736,196.000 286.600 C 196.220 286.464,196.400 285.823,196.400 285.176 C 196.400 284.529,196.220 284.000,196.000 284.000 C 195.780 284.000,195.600 283.634,195.600 283.187 C 195.600 282.741,195.337 282.274,195.015 282.150 C 194.694 282.027,194.327 281.599,194.200 281.199 C 193.987 280.528,193.354 280.474,185.885 280.488 C 181.438 280.497,178.340 280.621,179.000 280.763 C 179.994 280.978,180.075 281.071,179.467 281.311 C 178.071 281.862,175.200 281.652,175.200 281.000 C 175.200 280.667,174.844 280.400,174.400 280.400 C 173.937 280.400,173.600 280.667,173.600 281.033 C 173.600 281.382,173.375 281.584,173.100 281.483 C 172.825 281.383,172.643 281.103,172.696 280.862 C 172.762 280.560,171.047 280.424,167.196 280.426 C 162.451 280.428,161.600 280.521,161.600 281.038 C 161.600 281.373,161.417 281.534,161.193 281.396 C 160.970 281.258,160.891 280.977,161.017 280.772 C 161.144 280.568,160.716 280.400,160.066 280.400 C 159.386 280.400,158.788 280.654,158.655 281.000 C 158.363 281.761,157.600 281.784,157.600 281.032 C 157.600 280.552,155.356 280.456,143.200 280.419 C 135.280 280.394,128.800 280.515,128.801 280.687 C 128.801 280.859,131.390 281.042,134.553 281.094 C 137.715 281.146,140.550 281.266,140.852 281.362 C 141.153 281.458,141.670 281.617,142.000 281.716 C 144.438 282.444,120.203 282.514,116.300 281.791 C 114.830 281.518,114.419 281.083,115.184 280.610 C 115.776 280.244,114.338 278.800,113.381 278.800 C 112.468 278.800,111.285 277.643,110.414 275.900 C 110.112 275.295,109.715 274.800,109.532 274.800 C 109.350 274.800,109.200 274.080,109.200 273.200 C 109.200 272.320,109.020 271.600,108.800 271.600 C 108.535 271.600,108.400 253.200,108.400 217.200 L 108.400 162.800 118.100 162.763 C 123.435 162.743,131.945 162.754,137.011 162.787 C 142.874 162.826,146.642 162.688,147.376 162.409 C 148.173 162.106,148.659 162.099,148.945 162.385 C 149.601 163.041,245.070 162.957,245.335 162.300 C 245.496 161.900,245.543 161.900,245.568 162.300 C 245.606 162.897,248.400 162.996,248.400 162.400 C 248.400 162.180,248.695 162.000,249.056 162.000 C 250.993 162.000,251.566 156.729,249.818 154.982 C 249.278 154.442,248.558 154.000,248.218 154.000 C 247.878 154.000,247.600 153.818,247.600 153.595 C 247.600 153.326,237.414 153.194,217.100 153.200 C 200.325 153.205,169.005 153.208,147.500 153.205 L 108.400 153.200 108.400 140.000 C 108.400 131.467,108.541 126.800,108.800 126.800 C 109.020 126.800,109.197 126.485,109.194 126.100 C 109.189 125.502,109.131 125.487,108.800 126.000 C 108.469 126.513,108.411 126.498,108.406 125.900 C 108.403 125.515,108.580 125.200,108.800 125.200 C 109.020 125.200,109.200 124.880,109.200 124.488 C 109.200 124.097,109.560 123.517,110.000 123.200 C 110.440 122.883,110.800 122.383,110.800 122.088 C 110.800 121.785,111.001 121.677,111.262 121.838 C 111.548 122.015,111.615 121.948,111.438 121.662 C 111.281 121.408,111.360 121.200,111.612 121.200 C 111.865 121.200,112.429 120.795,112.866 120.300 C 113.303 119.805,113.547 119.625,113.407 119.900 C 113.055 120.593,113.445 120.525,114.372 119.731 C 114.983 119.208,115.064 118.894,114.745 118.297 C 113.537 116.040,115.204 115.965,159.600 116.273 C 210.584 116.627,210.152 116.625,210.463 116.502 C 210.864 116.344,264.369 116.381,269.400 116.543 C 273.521 116.676,277.200 117.409,277.200 118.097 C 277.200 118.264,277.451 118.400,277.757 118.400 C 278.625 118.400,282.668 122.999,282.910 124.261 C 283.253 126.058,282.398 127.081,280.737 126.860 C 280.407 126.816,280.548 127.881,280.922 128.255 C 281.075 128.408,281.206 134.128,281.213 140.967 C 281.223 151.139,281.330 153.538,281.800 154.159 C 282.116 154.576,282.298 155.041,282.205 155.192 C 282.112 155.343,282.297 155.467,282.618 155.467 C 282.938 155.467,283.200 155.287,283.200 155.067 C 283.200 154.648,283.775 155.070,283.835 155.533 C 283.936 156.320,284.531 157.166,284.845 156.972 C 285.043 156.850,285.314 157.031,285.446 157.375 C 285.578 157.719,286.016 158.000,286.419 158.000 C 286.823 158.000,287.264 158.180,287.400 158.400 C 287.819 159.079,289.607 158.859,289.842 158.100 C 289.961 157.715,290.225 157.087,290.429 156.705 C 291.032 155.575,290.910 137.497,290.300 137.700 C 290.025 137.792,289.800 138.107,289.800 138.400 C 289.800 139.216,288.986 139.306,288.366 138.560 C 287.942 138.049,287.841 136.675,287.934 132.694 C 288.107 125.276,286.404 119.123,283.722 117.480 C 283.435 117.304,283.200 116.933,283.200 116.655 C 283.200 116.068,281.673 114.890,279.400 113.725 C 276.666 112.324,275.858 112.047,274.000 111.876 C 273.010 111.784,271.629 111.521,270.930 111.291 C 270.232 111.061,269.602 110.927,269.530 110.992 M281.548 112.137 C 281.793 112.432,281.875 112.792,281.730 112.937 C 281.585 113.082,281.767 113.200,282.133 113.200 C 282.950 113.200,282.976 112.919,282.229 112.171 C 281.505 111.448,280.952 111.420,281.548 112.137 M284.413 114.251 C 284.390 115.045,285.484 115.716,285.829 115.119 C 285.993 114.834,285.982 114.732,285.804 114.894 C 285.625 115.055,285.242 114.875,284.952 114.494 C 284.663 114.112,284.420 114.003,284.413 114.251 M267.600 118.400 C 267.600 118.620,267.870 118.800,268.200 118.800 C 268.530 118.800,268.800 118.620,268.800 118.400 C 268.800 118.180,268.530 118.000,268.200 118.000 C 267.870 118.000,267.600 118.180,267.600 118.400 M272.400 119.200 C 272.400 119.420,272.670 119.600,273.000 119.600 C 273.330 119.600,273.600 119.420,273.600 119.200 C 273.600 118.980,273.330 118.800,273.000 118.800 C 272.670 118.800,272.400 118.980,272.400 119.200 M111.200 119.920 C 111.200 120.762,110.462 121.600,109.720 121.600 C 108.986 121.600,109.075 120.794,109.900 119.957 C 110.807 119.038,111.200 119.026,111.200 119.920 M274.984 119.627 C 274.839 119.861,275.053 120.306,275.460 120.614 C 276.388 121.317,277.727 121.373,277.492 120.700 C 277.396 120.425,277.021 120.253,276.659 120.318 C 276.281 120.385,276.000 120.172,276.000 119.818 C 276.000 119.110,275.375 118.993,274.984 119.627 M278.800 123.629 C 278.800 124.182,279.818 125.200,280.371 125.200 C 280.607 125.200,280.800 124.930,280.800 124.600 C 280.800 124.270,280.530 124.000,280.200 124.000 C 279.870 124.000,279.600 123.820,279.600 123.600 C 279.600 123.380,279.420 123.200,279.200 123.200 C 278.980 123.200,278.800 123.393,278.800 123.629 M290.000 125.400 C 290.000 125.950,290.180 126.400,290.400 126.400 C 290.620 126.400,290.800 125.950,290.800 125.400 C 290.800 124.850,290.620 124.400,290.400 124.400 C 290.180 124.400,290.000 124.850,290.000 125.400 M149.000 130.400 L 150.200 130.705 149.081 130.753 C 148.036 130.797,146.000 132.453,146.000 133.258 C 146.000 133.446,145.718 133.600,145.373 133.600 C 144.928 133.600,144.820 133.832,145.000 134.400 C 145.146 134.859,145.072 135.200,144.827 135.200 C 144.592 135.200,144.400 135.470,144.400 135.800 C 144.400 136.130,144.535 136.379,144.700 136.353 C 145.482 136.229,146.001 136.445,146.016 136.900 C 146.062 138.381,152.169 139.928,153.380 138.765 C 153.589 138.564,154.249 138.400,154.847 138.400 C 156.837 138.400,157.200 138.048,157.200 136.121 C 157.200 134.764,156.981 134.135,156.300 133.534 C 155.805 133.097,155.670 132.869,156.000 133.028 C 156.487 133.263,156.506 133.216,156.100 132.779 C 155.825 132.482,155.600 131.916,155.600 131.520 C 155.600 130.739,155.001 130.552,154.596 131.207 C 154.440 131.459,153.910 131.306,153.210 130.807 C 152.383 130.219,151.498 130.013,149.938 130.047 C 148.124 130.087,147.982 130.141,149.000 130.400 M145.200 139.904 C 145.200 140.071,145.564 140.435,146.009 140.713 C 146.759 141.181,146.781 141.159,146.313 140.409 C 145.809 139.603,145.200 139.326,145.200 139.904 M258.800 145.625 C 258.800 146.271,258.631 146.800,258.425 146.800 C 258.219 146.800,258.153 147.430,258.277 148.200 C 258.459 149.321,258.374 149.600,257.852 149.600 C 257.460 149.600,257.200 149.929,257.200 150.424 C 257.200 150.877,257.035 151.145,256.833 151.020 C 256.615 150.886,256.450 154.061,256.427 158.824 C 256.401 164.163,256.524 166.770,256.794 166.604 C 257.352 166.259,257.306 167.442,256.725 168.372 C 256.375 168.932,256.359 169.610,256.665 170.946 C 256.954 172.208,256.952 172.888,256.660 173.180 C 256.367 173.473,256.385 173.745,256.720 174.080 C 257.302 174.662,257.363 177.200,256.795 177.200 C 256.263 177.200,256.287 197.083,256.819 197.412 C 257.402 197.772,257.297 202.688,256.700 202.967 C 256.300 203.153,256.300 203.247,256.700 203.433 C 257.292 203.709,257.381 206.000,256.800 206.000 C 256.580 206.000,256.400 206.821,256.400 207.824 C 256.400 208.827,256.550 209.555,256.733 209.441 C 257.230 209.134,257.160 210.511,256.645 211.177 C 256.306 211.617,256.319 211.682,256.700 211.453 C 257.094 211.217,257.204 213.048,257.218 220.076 C 257.228 224.984,257.363 230.350,257.518 232.000 C 258.194 239.195,257.804 257.961,256.890 262.200 C 253.736 276.834,241.009 286.142,224.131 286.160 C 218.260 286.167,217.667 286.231,217.714 286.856 C 217.743 287.235,217.898 287.463,218.058 287.364 C 218.219 287.264,218.524 287.493,218.737 287.873 C 219.062 288.454,219.222 288.479,219.761 288.032 C 220.185 287.680,220.400 287.653,220.400 287.951 C 220.400 288.198,220.681 288.400,221.024 288.400 C 221.412 288.400,221.537 288.589,221.355 288.900 C 221.194 289.175,221.470 289.042,221.967 288.605 C 222.812 287.864,222.905 287.856,223.370 288.491 C 223.747 289.007,224.222 289.114,225.334 288.933 C 226.428 288.756,226.801 288.835,226.803 289.248 C 226.808 290.152,228.887 290.945,229.303 290.202 C 229.794 289.324,237.054 289.342,238.312 290.223 C 239.153 290.813,239.223 290.791,239.591 289.823 C 240.034 288.658,241.010 288.504,242.041 289.437 C 242.693 290.027,242.728 290.013,242.527 289.242 C 242.238 288.139,243.517 287.599,244.202 288.535 C 244.918 289.514,245.252 289.345,244.953 288.156 C 244.702 287.154,244.743 287.124,245.996 287.399 C 246.908 287.599,247.218 287.552,247.026 287.243 C 246.876 286.999,246.943 286.800,247.176 286.800 C 247.409 286.800,247.600 286.980,247.600 287.200 C 247.600 288.022,248.394 287.562,248.636 286.600 C 248.793 285.974,249.170 285.600,249.643 285.600 C 250.147 285.600,250.400 285.317,250.400 284.755 C 250.400 284.043,250.590 283.937,251.600 284.085 C 252.612 284.234,252.800 284.128,252.800 283.411 C 252.800 282.371,253.515 281.600,254.480 281.600 C 254.910 281.600,255.200 281.306,255.200 280.870 C 255.200 279.899,256.838 278.400,257.899 278.400 C 258.798 278.400,259.439 277.181,259.242 275.843 C 259.147 275.199,259.312 275.122,260.350 275.330 C 261.620 275.584,262.441 275.055,261.398 274.654 C 260.362 274.257,260.709 273.490,261.800 273.764 C 262.377 273.909,262.800 273.843,262.800 273.608 C 262.800 273.383,262.530 273.200,262.200 273.200 C 261.870 273.200,261.600 272.909,261.600 272.553 C 261.600 272.104,261.844 271.970,262.400 272.116 C 262.839 272.231,263.317 272.134,263.461 271.901 C 263.606 271.666,263.536 271.593,263.304 271.736 C 263.073 271.879,262.775 271.712,262.642 271.365 C 262.262 270.375,262.335 270.297,263.400 270.564 C 264.138 270.749,264.400 270.656,264.400 270.208 C 264.400 269.873,264.198 269.645,263.950 269.700 C 263.703 269.755,263.409 269.550,263.298 269.243 C 263.147 268.829,263.366 268.739,264.159 268.890 C 265.190 269.087,265.204 269.065,264.611 268.161 C 263.409 266.326,264.057 262.959,265.898 261.471 C 266.770 260.766,267.211 259.299,266.400 259.800 C 265.965 260.069,265.929 259.981,265.762 258.200 C 265.631 256.814,265.642 201.603,265.773 199.800 C 265.821 199.140,265.905 196.890,265.958 194.800 C 266.024 192.252,266.170 191.264,266.400 191.800 C 266.622 192.316,266.754 191.075,266.772 188.300 C 266.795 184.732,266.698 184.000,266.200 184.000 C 265.870 184.000,265.600 183.820,265.600 183.600 C 265.600 183.380,265.870 183.200,266.200 183.200 C 266.530 183.200,266.800 182.949,266.800 182.643 C 266.800 182.336,266.530 181.982,266.200 181.855 C 265.870 181.729,265.600 181.439,265.600 181.213 C 265.600 180.986,265.870 180.800,266.200 180.800 C 266.695 180.800,267.171 164.771,266.766 161.745 C 266.732 161.491,267.618 160.817,268.000 160.807 C 268.839 160.783,270.438 162.850,270.189 163.635 C 269.949 164.389,270.031 164.485,270.754 164.296 C 271.565 164.084,271.850 164.581,271.619 165.800 C 271.577 166.020,271.772 165.975,272.051 165.700 C 272.331 165.425,272.740 165.200,272.960 165.200 C 273.182 165.200,273.147 165.413,272.880 165.680 C 272.616 165.944,272.400 166.283,272.400 166.433 C 272.400 166.761,274.173 167.385,275.543 167.539 C 275.852 167.574,275.986 167.859,275.855 168.200 C 275.699 168.608,275.877 168.800,276.413 168.800 C 276.850 168.800,277.200 169.070,277.200 169.408 C 277.200 169.863,277.462 169.950,278.244 169.753 C 279.239 169.504,279.275 169.550,279.013 170.743 C 278.647 172.408,279.571 173.386,281.202 173.060 C 282.342 172.832,283.457 173.581,282.468 173.911 C 282.208 173.997,282.092 174.225,282.210 174.417 C 282.329 174.608,282.685 174.665,283.003 174.544 C 283.639 174.300,284.419 174.941,285.151 176.308 C 285.413 176.799,285.914 177.200,286.263 177.200 C 286.787 177.200,286.809 177.307,286.392 177.810 C 285.748 178.585,286.191 179.071,286.960 178.433 C 287.537 177.954,289.600 179.231,289.600 180.068 C 289.600 180.748,291.014 182.000,291.789 182.005 C 293.340 182.016,294.464 182.514,294.830 183.355 C 295.032 183.820,295.361 184.470,295.560 184.800 C 295.760 185.130,296.149 186.165,296.425 187.100 C 296.702 188.035,297.077 188.800,297.260 188.800 C 297.442 188.800,297.582 189.205,297.571 189.700 C 297.560 190.195,297.833 191.590,298.178 192.799 C 298.574 194.186,298.657 195.048,298.403 195.132 C 298.181 195.206,298.000 195.543,298.000 195.880 C 298.000 196.296,297.743 196.426,297.200 196.284 C 296.560 196.117,296.400 196.272,296.400 197.061 C 296.400 197.617,296.575 197.939,296.800 197.800 C 297.020 197.664,297.200 197.743,297.200 197.976 C 297.200 198.671,297.019 199.006,296.700 198.900 C 296.535 198.845,296.400 199.070,296.400 199.400 C 296.400 199.730,296.670 200.000,297.000 200.000 C 297.330 200.000,297.600 199.820,297.600 199.600 C 297.600 198.797,298.348 199.226,298.472 200.100 C 298.717 201.821,296.286 209.589,295.500 209.597 C 295.335 209.599,295.200 209.814,295.200 210.075 C 295.200 211.240,293.409 213.167,292.532 212.947 C 291.799 212.763,291.692 212.864,291.875 213.564 C 292.000 214.043,291.903 214.400,291.647 214.400 C 291.401 214.400,291.200 214.670,291.200 215.000 C 291.200 215.686,290.572 215.802,290.192 215.187 C 290.041 214.943,289.632 215.160,289.194 215.716 C 288.633 216.429,288.102 216.642,287.014 216.588 C 286.223 216.548,285.480 216.670,285.364 216.858 C 285.248 217.046,285.433 217.200,285.776 217.200 C 286.119 217.200,286.400 217.482,286.400 217.827 C 286.400 218.274,286.086 218.417,285.300 218.327 C 284.681 218.255,284.244 217.981,284.300 217.700 C 284.355 217.425,284.239 217.200,284.043 217.200 C 283.568 217.200,283.055 218.425,283.164 219.300 C 283.211 219.685,283.059 220.000,282.825 220.000 C 282.591 220.000,282.400 220.540,282.400 221.200 C 282.400 222.004,282.201 222.400,281.795 222.400 C 281.262 222.400,281.192 225.164,281.207 245.669 C 281.215 258.468,281.071 269.043,280.887 269.169 C 280.504 269.432,280.439 271.223,280.821 270.987 C 281.257 270.717,282.800 272.022,282.800 272.661 C 282.800 273.683,281.490 275.718,279.900 277.167 C 279.075 277.919,278.400 278.753,278.400 279.021 C 278.400 279.650,277.014 280.543,275.028 281.194 C 272.478 282.030,268.805 284.347,269.043 284.968 C 269.159 285.270,268.865 285.789,268.390 286.122 C 267.418 286.803,267.459 288.197,268.452 288.206 C 268.804 288.209,269.421 288.479,269.823 288.806 C 270.251 289.154,270.429 289.193,270.253 288.900 C 270.088 288.625,270.143 288.400,270.376 288.400 C 270.609 288.400,270.800 288.563,270.800 288.762 C 270.800 288.961,271.488 289.032,272.328 288.919 C 273.392 288.776,274.044 288.902,274.474 289.331 C 275.139 289.996,276.000 289.538,276.000 288.520 C 276.000 287.940,276.200 287.904,277.496 288.251 C 277.988 288.383,278.292 288.650,278.172 288.845 C 278.051 289.040,278.147 289.200,278.384 289.200 C 278.644 289.200,278.716 288.803,278.564 288.200 C 278.410 287.584,278.483 287.200,278.757 287.200 C 279.000 287.200,279.200 287.470,279.200 287.800 C 279.200 288.130,279.473 288.400,279.808 288.400 C 280.256 288.400,280.349 288.138,280.164 287.400 C 279.890 286.308,280.657 285.963,281.055 287.000 C 281.354 287.779,282.000 287.775,282.000 286.995 C 282.000 286.118,282.809 284.851,284.350 283.315 C 285.148 282.520,285.700 281.570,285.700 280.992 C 285.700 280.455,285.952 279.806,286.259 279.551 C 286.570 279.293,286.713 278.757,286.582 278.344 C 286.452 277.935,286.538 277.600,286.773 277.600 C 287.008 277.600,287.200 277.251,287.200 276.824 C 287.200 276.397,287.380 275.936,287.600 275.800 C 287.820 275.664,288.000 274.831,288.000 273.949 C 288.000 272.528,288.091 272.375,288.800 272.600 C 289.699 272.885,289.780 272.683,289.199 271.598 C 288.957 271.145,288.944 270.758,289.168 270.620 C 289.650 270.322,289.685 243.585,289.204 243.005 C 289.006 242.766,288.805 240.417,288.759 237.785 C 288.712 235.153,288.562 231.771,288.425 230.269 C 288.288 228.767,288.324 227.447,288.505 227.335 C 288.685 227.224,288.726 226.797,288.596 226.386 C 288.426 225.851,288.929 225.049,290.379 223.544 C 291.491 222.391,292.400 221.302,292.400 221.124 C 292.400 220.946,292.625 220.794,292.900 220.786 C 293.175 220.778,294.120 219.945,295.000 218.934 C 295.880 217.924,296.986 216.681,297.458 216.173 C 297.929 215.664,298.214 215.147,298.089 215.023 C 297.965 214.898,298.242 214.393,298.705 213.898 C 299.694 212.843,301.590 208.908,301.596 207.900 C 301.598 207.515,301.743 207.200,301.917 207.200 C 302.512 207.200,303.261 202.585,303.152 199.588 C 303.065 197.203,303.196 196.368,303.799 195.452 C 304.506 194.378,304.512 194.271,303.878 193.807 C 303.505 193.535,303.200 192.847,303.200 192.280 C 303.200 191.712,303.044 191.151,302.854 191.033 C 302.523 190.829,302.711 188.800,303.061 188.800 C 303.153 188.800,303.672 189.091,304.214 189.446 C 305.155 190.062,305.200 190.053,305.200 189.246 C 305.200 188.781,304.975 188.377,304.700 188.349 C 304.425 188.321,303.775 188.255,303.256 188.201 C 301.703 188.043,300.987 184.167,302.419 183.667 C 303.277 183.367,302.725 182.804,301.800 183.036 C 300.647 183.325,300.391 182.532,301.500 182.106 C 302.089 181.879,302.042 181.797,301.200 181.583 C 300.650 181.443,300.243 181.127,300.295 180.880 C 300.347 180.633,299.946 179.951,299.402 179.365 C 298.859 178.779,298.500 178.162,298.603 177.995 C 298.707 177.828,298.523 177.468,298.196 177.196 C 297.868 176.924,297.600 176.838,297.600 177.005 C 297.600 177.172,297.228 176.835,296.774 176.258 C 296.320 175.680,296.061 175.025,296.199 174.801 C 296.338 174.577,296.170 174.287,295.828 174.155 C 295.485 174.024,295.321 173.727,295.464 173.496 C 295.609 173.261,295.533 173.194,295.292 173.343 C 294.846 173.619,292.800 172.864,292.800 172.423 C 292.800 172.286,292.029 171.947,291.086 171.669 C 288.802 170.994,285.600 168.252,285.600 166.970 C 285.600 166.413,285.005 165.371,284.200 164.518 C 283.430 163.701,282.800 162.721,282.800 162.340 C 282.800 161.959,282.592 161.519,282.338 161.362 C 282.069 161.195,281.984 161.251,282.136 161.496 C 282.279 161.727,282.117 162.023,281.776 162.154 C 280.973 162.462,272.757 154.179,273.066 153.373 C 273.452 152.366,272.062 151.362,271.447 152.203 C 270.976 152.847,270.798 152.767,269.267 151.221 C 267.753 149.691,267.009 148.388,268.000 149.000 C 268.220 149.136,268.400 149.057,268.400 148.824 C 268.400 148.591,268.016 148.400,267.546 148.400 C 266.552 148.400,264.664 146.532,264.937 145.819 C 265.040 145.552,264.879 145.333,264.579 145.333 C 264.280 145.333,264.120 145.471,264.224 145.639 C 264.328 145.807,264.243 146.050,264.034 146.179 C 263.826 146.308,263.542 146.230,263.404 146.007 C 263.266 145.783,262.533 145.600,261.776 145.600 C 260.921 145.600,260.400 145.405,260.400 145.085 C 260.400 144.802,260.040 144.543,259.600 144.510 C 258.968 144.462,258.800 144.696,258.800 145.625 M288.278 167.856 C 288.137 167.996,288.107 168.250,288.211 168.418 C 288.457 168.816,290.000 168.415,290.000 167.953 C 290.000 167.548,288.661 167.472,288.278 167.856 M299.200 178.400 C 299.200 178.620,299.470 178.800,299.800 178.800 C 300.130 178.800,300.400 178.620,300.400 178.400 C 300.400 178.180,300.130 178.000,299.800 178.000 C 299.470 178.000,299.200 178.180,299.200 178.400 M291.600 183.833 C 291.600 184.540,292.461 184.417,292.708 183.675 C 292.795 183.414,292.582 183.200,292.233 183.200 C 291.885 183.200,291.600 183.485,291.600 183.833 M302.626 184.757 C 302.095 185.618,303.693 187.277,304.357 186.555 C 304.491 186.409,304.375 186.210,304.100 186.112 C 303.825 186.014,303.600 185.689,303.600 185.390 C 303.600 184.703,302.929 184.267,302.626 184.757 M305.043 193.833 C 304.700 194.727,304.727 194.800,305.400 194.800 C 305.733 194.800,306.000 194.444,306.000 194.000 C 306.000 193.046,305.386 192.939,305.043 193.833 M292.460 210.251 C 291.417 211.363,291.420 211.384,292.716 211.782 C 293.542 212.037,293.606 211.964,293.372 211.032 C 293.171 210.232,293.263 210.000,293.780 210.000 C 294.147 210.000,294.336 209.820,294.200 209.600 C 293.837 209.012,293.506 209.136,292.460 210.251 M295.455 221.400 C 295.329 221.730,294.919 222.000,294.546 222.000 C 294.172 222.000,293.992 222.125,294.145 222.278 C 294.546 222.679,295.642 222.791,295.404 222.407 C 295.294 222.229,295.474 221.981,295.802 221.854 C 296.131 221.728,296.400 221.439,296.400 221.213 C 296.400 220.585,295.716 220.720,295.455 221.400 M278.800 275.200 C 278.800 275.420,279.205 275.597,279.700 275.594 C 280.428 275.589,280.485 275.514,280.000 275.200 C 279.224 274.699,278.800 274.699,278.800 275.200 M286.400 280.400 C 286.400 280.620,286.670 280.800,287.000 280.800 C 287.330 280.800,287.600 280.620,287.600 280.400 C 287.600 280.180,287.330 280.000,287.000 280.000 C 286.670 280.000,286.400 280.180,286.400 280.400 M121.435 280.924 C 122.247 281.378,127.970 281.472,128.098 281.033 C 128.154 280.841,126.543 280.662,124.518 280.636 C 122.348 280.607,121.082 280.726,121.435 280.924 M185.505 281.075 C 185.122 281.175,184.402 281.179,183.905 281.083 C 183.407 280.987,183.720 280.905,184.600 280.901 C 185.480 280.896,185.887 280.975,185.505 281.075 M145.100 281.876 C 144.715 281.976,144.085 281.976,143.700 281.876 C 143.315 281.775,143.630 281.693,144.400 281.693 C 145.170 281.693,145.485 281.775,145.100 281.876 M193.965 282.370 C 194.445 282.674,194.434 282.823,193.893 283.364 C 193.077 284.180,192.551 284.170,192.229 283.332 C 191.844 282.328,192.939 281.720,193.965 282.370 M285.002 284.398 C 284.603 284.839,284.407 285.200,284.567 285.200 C 284.988 285.200,286.128 283.995,285.912 283.779 C 285.811 283.678,285.402 283.956,285.002 284.398 M108.066 286.121 C 107.746 286.506,107.835 286.647,108.420 286.692 C 109.219 286.752,109.481 286.221,108.845 285.828 C 108.650 285.707,108.299 285.839,108.066 286.121 M194.985 286.900 C 194.613 288.631,194.482 288.806,193.760 288.529 C 193.422 288.400,192.690 288.538,192.133 288.836 C 191.232 289.318,191.058 289.294,190.560 288.613 C 189.766 287.527,189.853 287.232,191.100 286.790 C 191.705 286.576,192.470 286.231,192.800 286.024 C 194.264 285.105,195.282 285.513,194.985 286.900 M111.051 288.883 C 111.325 289.327,112.400 289.280,112.400 288.825 C 112.400 288.619,112.052 288.476,111.628 288.508 C 111.203 288.540,110.944 288.709,111.051 288.883 " stroke="none" fill="#1e6655" fill-rule="evenodd"></path><path id="path2" d="M112.331 109.961 C 111.744 110.902,110.985 111.053,110.633 110.300 C 110.447 109.900,110.353 109.900,110.167 110.300 C 110.038 110.575,109.588 110.800,109.167 110.800 C 108.745 110.800,108.400 111.062,108.400 111.381 C 108.400 111.701,107.725 112.279,106.900 112.666 C 105.310 113.411,102.825 115.862,102.809 116.700 C 102.804 116.975,102.620 117.200,102.400 117.200 C 102.180 117.200,102.000 117.481,102.000 117.824 C 102.000 118.193,101.812 118.331,101.538 118.162 C 101.264 117.993,101.185 118.051,101.342 118.306 C 101.488 118.542,101.336 119.007,101.004 119.339 C 100.672 119.671,100.400 120.211,100.400 120.538 C 100.400 120.865,100.195 121.202,99.946 121.285 C 99.622 121.393,99.650 121.691,100.042 122.318 C 100.831 123.582,101.363 123.412,101.976 121.700 C 102.271 120.875,102.634 120.110,102.783 120.000 C 103.304 119.614,105.600 116.051,105.600 115.628 C 105.600 115.393,105.898 115.200,106.262 115.200 C 106.626 115.200,107.570 114.705,108.358 114.100 C 110.499 112.458,111.364 112.086,113.687 111.809 C 118.554 111.228,270.916 111.020,271.986 111.593 C 272.405 111.817,273.482 112.000,274.379 112.000 C 275.277 112.000,276.323 112.157,276.705 112.350 C 281.599 114.813,283.200 115.875,283.200 116.655 C 283.200 116.933,283.435 117.304,283.722 117.480 C 286.411 119.128,288.107 125.274,287.933 132.739 C 287.830 137.175,287.912 138.083,288.467 138.638 C 289.125 139.297,290.216 139.073,289.781 138.370 C 289.654 138.163,289.831 137.886,290.175 137.754 C 290.697 137.554,290.800 136.663,290.800 132.334 C 290.800 128.982,290.659 127.240,290.400 127.400 C 290.180 127.536,290.000 127.472,290.000 127.257 C 290.000 127.042,290.225 126.776,290.500 126.665 C 290.900 126.504,290.900 126.457,290.500 126.432 C 290.201 126.413,290.000 125.836,290.000 125.000 C 290.000 124.230,289.820 123.600,289.600 123.600 C 289.380 123.600,289.200 123.081,289.200 122.446 C 289.200 121.235,288.273 119.061,287.911 119.423 C 287.795 119.539,287.700 119.171,287.700 118.607 C 287.700 118.042,287.318 117.249,286.850 116.843 C 286.382 116.438,286.000 115.913,286.000 115.677 C 286.000 115.440,285.792 115.119,285.538 114.962 C 285.233 114.773,285.178 114.866,285.378 115.238 C 285.544 115.547,285.143 115.215,284.487 114.500 C 283.831 113.785,282.903 113.200,282.424 113.200 C 281.945 113.200,281.656 113.034,281.781 112.831 C 282.088 112.334,279.883 110.800,278.862 110.800 C 278.414 110.800,277.936 110.620,277.800 110.400 C 277.664 110.180,276.843 110.000,275.976 110.000 C 275.109 110.000,274.400 109.820,274.400 109.600 C 274.400 108.779,115.183 109.078,114.544 109.900 C 114.027 110.565,113.971 110.563,113.428 109.861 C 112.875 109.148,112.837 109.152,112.331 109.961 M117.000 116.546 C 114.980 116.964,114.619 117.165,114.720 117.821 C 114.786 118.250,114.861 118.825,114.887 119.100 C 114.942 119.691,115.600 119.783,115.600 119.200 C 115.600 118.935,141.200 118.800,191.600 118.800 C 242.000 118.800,267.600 118.665,267.600 118.400 C 267.600 117.824,268.695 117.906,268.936 118.500 C 269.089 118.876,269.244 118.852,269.563 118.400 C 269.851 117.993,269.990 117.961,269.994 118.300 C 269.998 118.617,270.596 118.800,271.629 118.800 C 272.573 118.800,273.520 119.063,273.883 119.426 C 274.325 119.868,274.633 119.927,274.934 119.626 C 275.542 119.018,276.000 119.100,276.000 119.818 C 276.000 120.184,276.285 120.387,276.700 120.318 C 277.215 120.231,277.375 120.438,277.305 121.100 C 277.234 121.764,277.418 122.000,278.005 122.000 C 278.442 122.000,278.800 122.193,278.800 122.429 C 278.800 122.969,279.812 124.000,280.343 124.000 C 280.570 124.000,280.681 124.757,280.600 125.755 L 280.457 127.510 281.589 126.945 C 282.928 126.278,283.192 125.736,282.906 124.240 C 282.667 122.993,278.618 118.400,277.757 118.400 C 277.451 118.400,277.200 118.264,277.200 118.097 C 277.200 117.409,273.521 116.676,269.400 116.543 C 264.369 116.381,210.864 116.344,210.463 116.502 C 210.163 116.621,212.361 116.630,159.400 116.299 C 128.315 116.106,118.865 116.161,117.000 116.546 M109.900 119.957 C 109.075 120.794,108.986 121.600,109.720 121.600 C 110.462 121.600,111.200 120.762,111.200 119.920 C 111.200 119.026,110.807 119.038,109.900 119.957 M146.480 130.621 C 146.193 130.945,146.072 131.392,146.209 131.615 C 146.347 131.838,146.221 131.970,145.930 131.910 C 145.638 131.849,145.445 132.025,145.500 132.300 C 145.555 132.575,145.375 132.755,145.100 132.700 C 144.801 132.640,144.550 133.122,144.475 133.900 C 144.400 134.674,144.532 135.200,144.802 135.200 C 145.072 135.200,145.152 134.878,145.000 134.400 C 144.820 133.832,144.928 133.600,145.373 133.600 C 145.718 133.600,146.000 133.446,146.000 133.258 C 146.000 132.436,148.028 130.800,149.048 130.800 C 150.452 130.800,150.170 130.569,148.400 130.269 C 147.428 130.105,146.841 130.212,146.480 130.621 M153.189 130.778 C 153.733 131.196,154.326 131.445,154.508 131.333 C 155.057 130.994,153.963 129.999,153.051 130.009 C 152.230 130.017,152.235 130.045,153.189 130.778 M144.639 136.294 C 144.074 136.860,144.477 138.513,145.408 139.444 C 145.962 139.998,146.293 140.665,146.144 140.926 C 145.994 141.187,146.018 141.268,146.196 141.106 C 146.375 140.945,146.760 141.125,147.053 141.506 C 147.487 142.073,147.650 142.100,147.942 141.657 C 148.192 141.279,148.383 141.248,148.574 141.557 C 149.379 142.860,155.600 141.840,155.600 140.405 C 155.600 140.156,155.808 140.081,156.062 140.238 C 156.336 140.407,156.415 140.349,156.258 140.094 C 156.112 139.858,156.264 139.393,156.596 139.061 C 156.928 138.729,157.200 138.371,157.200 138.267 C 157.200 137.980,153.860 138.462,153.400 138.815 C 152.021 139.872,146.064 138.362,146.016 136.943 C 145.998 136.414,144.993 135.941,144.639 136.294 M260.400 145.000 C 260.400 145.417,260.820 145.600,261.776 145.600 C 262.533 145.600,263.266 145.783,263.404 146.007 C 263.542 146.230,263.826 146.308,264.034 146.179 C 264.243 146.050,264.292 145.749,264.145 145.511 C 263.985 145.251,264.063 145.191,264.338 145.362 C 264.592 145.519,264.800 145.807,264.800 146.003 C 264.800 146.536,266.624 148.400,267.146 148.400 C 267.935 148.400,267.652 147.961,265.700 146.161 C 263.719 144.334,262.921 144.060,262.030 144.900 C 261.606 145.300,261.463 145.300,261.317 144.900 C 261.061 144.202,260.400 144.274,260.400 145.000 M258.000 146.000 C 258.000 146.440,257.820 146.800,257.600 146.800 C 257.380 146.800,257.200 147.430,257.200 148.200 C 257.200 149.228,257.373 149.600,257.852 149.600 C 258.374 149.600,258.459 149.321,258.277 148.200 C 258.153 147.430,258.219 146.800,258.425 146.800 C 258.631 146.800,258.800 146.440,258.800 146.000 C 258.800 145.560,258.620 145.200,258.400 145.200 C 258.180 145.200,258.000 145.560,258.000 146.000 M267.613 149.068 C 267.590 149.905,270.855 152.905,271.302 152.458 C 271.822 151.938,270.749 150.802,269.729 150.794 C 269.159 150.789,269.120 150.712,269.551 150.439 C 269.854 150.247,269.969 149.874,269.806 149.610 C 269.599 149.274,269.383 149.257,269.089 149.551 C 268.794 149.846,268.511 149.766,268.147 149.286 C 267.860 148.909,267.620 148.811,267.613 149.068 M273.034 153.546 C 272.541 154.342,281.145 162.458,281.998 162.001 C 282.439 161.765,282.800 161.478,282.800 161.362 C 282.800 161.247,282.630 161.258,282.423 161.386 C 282.215 161.514,281.411 160.985,280.636 160.209 C 279.861 159.434,279.030 158.800,278.790 158.800 C 278.549 158.800,278.464 158.620,278.600 158.400 C 278.736 158.180,278.556 158.000,278.200 158.000 C 277.844 158.000,277.667 157.816,277.806 157.590 C 277.945 157.365,277.821 157.230,277.530 157.290 C 277.238 157.351,277.049 157.162,277.110 156.870 C 277.170 156.579,277.035 156.455,276.810 156.594 C 276.584 156.733,276.400 156.672,276.400 156.458 C 276.400 156.072,273.783 153.200,273.431 153.200 C 273.330 153.200,273.151 153.356,273.034 153.546 M281.200 153.938 C 281.200 154.124,281.588 154.619,282.062 155.038 L 282.924 155.800 282.216 154.700 C 281.486 153.566,281.200 153.351,281.200 153.938 M290.292 156.642 C 290.131 156.802,290.000 157.209,290.000 157.547 C 290.000 157.997,290.118 158.042,290.445 157.715 C 290.690 157.470,290.821 157.063,290.737 156.810 C 290.652 156.557,290.452 156.481,290.292 156.642 M267.211 161.185 C 266.717 161.497,266.750 161.605,267.411 161.854 C 267.845 162.017,268.400 162.417,268.645 162.744 C 269.174 163.449,270.400 163.706,270.400 163.111 C 270.400 162.708,268.408 160.795,268.000 160.807 C 267.890 160.810,267.535 160.980,267.211 161.185 M147.400 162.400 C 146.733 162.686,146.821 162.748,147.924 162.772 C 148.710 162.789,149.147 162.638,149.000 162.400 C 148.712 161.934,148.485 161.934,147.400 162.400 M282.800 162.468 C 282.800 162.779,283.430 163.701,284.200 164.518 C 285.005 165.371,285.600 166.413,285.600 166.970 C 285.600 168.215,288.691 170.909,290.954 171.637 C 291.859 171.928,292.690 172.284,292.800 172.427 C 292.910 172.571,293.630 173.011,294.400 173.406 C 295.766 174.106,295.785 174.105,295.200 173.372 C 293.800 171.618,291.983 170.000,291.413 170.000 C 291.056 170.000,290.800 169.648,290.800 169.155 C 290.800 168.440,290.611 168.337,289.582 168.488 C 288.273 168.680,287.544 168.150,288.575 167.754 C 289.381 167.445,289.385 166.800,288.581 166.800 C 288.240 166.800,287.103 165.945,286.053 164.900 C 283.253 162.113,282.800 161.774,282.800 162.468 M271.026 164.358 C 270.844 164.653,271.020 165.080,271.460 165.414 C 272.375 166.107,272.673 166.129,273.042 165.532 C 273.238 165.215,273.111 165.148,272.650 165.325 C 272.176 165.507,271.873 165.325,271.651 164.725 C 271.425 164.117,271.242 164.009,271.026 164.358 M256.700 166.631 C 256.535 166.797,256.400 167.299,256.400 167.747 C 256.400 168.335,256.521 168.439,256.838 168.122 C 257.078 167.882,257.213 167.380,257.138 167.007 C 257.062 166.633,256.865 166.464,256.700 166.631 M273.200 167.032 C 273.200 167.499,274.555 168.374,275.300 168.387 C 276.091 168.402,276.272 167.633,275.500 167.539 C 275.225 167.506,274.820 167.456,274.600 167.429 C 274.380 167.401,273.975 167.238,273.700 167.066 C 273.425 166.894,273.200 166.879,273.200 167.032 M276.000 169.400 C 276.274 169.730,276.656 170.000,276.849 170.000 C 277.042 170.000,277.200 169.730,277.200 169.400 C 277.200 169.055,276.839 168.800,276.351 168.800 C 275.642 168.800,275.584 168.899,276.000 169.400 M278.000 170.600 C 278.000 171.717,278.584 171.941,278.957 170.967 C 279.341 169.966,279.246 169.600,278.600 169.600 C 278.227 169.600,278.000 169.978,278.000 170.600 M256.400 172.024 C 256.400 172.697,256.556 173.151,256.746 173.033 C 257.069 172.834,256.893 170.800,256.553 170.800 C 256.469 170.800,256.400 171.351,256.400 172.024 M281.475 173.058 C 280.953 173.580,281.202 174.000,282.033 174.000 C 282.499 174.000,282.797 173.790,282.708 173.525 C 282.513 172.940,281.846 172.688,281.475 173.058 M256.400 175.576 C 256.400 176.469,256.580 177.200,256.800 177.200 C 257.020 177.200,257.200 176.581,257.200 175.824 C 257.200 175.067,257.020 174.336,256.800 174.200 C 256.558 174.051,256.400 174.596,256.400 175.576 M295.837 174.340 C 295.564 174.781,297.395 177.272,297.739 176.928 C 298.264 176.403,297.977 175.723,297.014 175.207 C 296.471 174.917,296.122 174.527,296.237 174.340 C 296.353 174.153,296.357 174.000,296.247 174.000 C 296.137 174.000,295.953 174.153,295.837 174.340 M282.800 175.213 C 282.800 175.659,283.115 176.136,283.500 176.272 C 283.885 176.408,284.607 176.886,285.105 177.334 C 285.804 177.963,286.119 178.041,286.485 177.675 C 286.852 177.308,286.808 177.200,286.294 177.200 C 285.928 177.200,285.413 176.799,285.151 176.308 C 284.120 174.381,282.800 173.766,282.800 175.213 M287.110 178.224 C 286.986 178.347,287.730 179.292,288.762 180.324 C 289.794 181.356,290.753 182.501,290.894 182.869 C 291.063 183.310,291.432 183.464,291.975 183.322 C 292.705 183.131,292.771 183.243,292.559 184.305 C 292.420 185.002,292.504 185.617,292.760 185.775 C 293.002 185.925,293.200 186.418,293.200 186.870 C 293.200 187.496,293.391 187.643,294.000 187.484 C 294.724 187.295,294.800 187.472,294.800 189.357 C 294.800 190.503,294.969 191.611,295.176 191.820 C 295.383 192.029,295.608 193.086,295.676 194.168 C 295.799 196.117,298.000 197.707,298.000 195.847 C 298.000 195.528,298.181 195.206,298.403 195.132 C 298.657 195.048,298.574 194.186,298.178 192.799 C 297.833 191.590,297.560 190.195,297.571 189.700 C 297.582 189.205,297.442 188.800,297.260 188.800 C 297.077 188.800,296.702 188.035,296.425 187.100 C 296.149 186.165,295.755 185.130,295.550 184.800 C 295.345 184.470,295.067 183.871,294.934 183.469 C 294.669 182.673,293.262 182.000,291.863 182.000 C 291.030 182.000,289.600 180.779,289.600 180.068 C 289.600 179.773,287.768 178.000,287.464 178.000 C 287.392 178.000,287.233 178.101,287.110 178.224 M299.037 179.000 C 299.771 180.121,300.400 180.306,300.400 179.400 C 300.400 179.070,300.130 178.800,299.800 178.800 C 299.470 178.800,299.200 178.620,299.200 178.400 C 299.200 178.180,299.016 178.000,298.791 178.000 C 298.566 178.000,298.676 178.450,299.037 179.000 M300.291 180.642 C 299.856 181.078,300.382 181.600,301.257 181.600 C 301.727 181.600,301.997 181.390,301.900 181.100 C 301.710 180.529,300.694 180.239,300.291 180.642 M265.692 181.275 C 265.939 182.017,266.800 182.140,266.800 181.433 C 266.800 181.085,266.515 180.800,266.167 180.800 C 265.818 180.800,265.605 181.014,265.692 181.275 M301.067 182.267 C 300.606 182.727,300.775 183.200,301.400 183.200 C 301.730 183.200,302.000 182.930,302.000 182.600 C 302.000 181.975,301.527 181.806,301.067 182.267 M265.600 183.600 C 265.600 183.820,265.870 184.000,266.200 184.000 C 266.530 184.000,266.800 183.820,266.800 183.600 C 266.800 183.380,266.530 183.200,266.200 183.200 C 265.870 183.200,265.600 183.380,265.600 183.600 M301.823 185.017 C 301.557 186.436,301.813 187.971,302.327 188.033 C 304.237 188.266,304.400 188.227,304.400 187.533 C 304.400 187.130,304.233 186.800,304.029 186.800 C 303.198 186.800,302.404 185.523,302.643 184.571 C 302.779 184.029,302.710 183.600,302.488 183.600 C 302.269 183.600,301.969 184.238,301.823 185.017 M302.700 189.810 C 302.594 190.365,302.663 190.915,302.854 191.033 C 303.044 191.151,303.200 191.712,303.200 192.280 C 303.200 192.847,303.505 193.535,303.878 193.807 C 304.512 194.271,304.506 194.378,303.799 195.452 C 303.196 196.368,303.065 197.203,303.152 199.588 C 303.261 202.585,302.512 207.200,301.917 207.200 C 301.743 207.200,301.598 207.515,301.596 207.900 C 301.590 208.908,299.694 212.843,298.705 213.898 C 298.242 214.393,297.965 214.898,298.089 215.023 C 298.214 215.147,297.929 215.664,297.458 216.173 C 296.986 216.681,295.880 217.924,295.000 218.934 C 294.120 219.945,293.175 220.778,292.900 220.786 C 292.625 220.794,292.400 220.946,292.400 221.124 C 292.400 221.302,291.491 222.391,290.379 223.544 C 288.929 225.049,288.426 225.851,288.596 226.386 C 288.726 226.797,288.685 227.224,288.505 227.335 C 288.324 227.447,288.288 228.767,288.425 230.269 C 288.562 231.771,288.712 235.153,288.759 237.785 C 288.805 240.417,289.006 242.766,289.204 243.005 C 289.685 243.585,289.650 270.322,289.168 270.620 C 288.944 270.758,288.957 271.145,289.199 271.598 C 289.780 272.683,289.699 272.885,288.800 272.600 C 288.091 272.375,288.000 272.528,288.000 273.949 C 288.000 274.831,287.820 275.664,287.600 275.800 C 287.380 275.936,287.200 276.397,287.200 276.824 C 287.200 277.251,287.008 277.600,286.773 277.600 C 286.538 277.600,286.452 277.935,286.582 278.344 C 286.713 278.757,286.570 279.293,286.259 279.551 C 285.952 279.806,285.700 280.455,285.700 280.992 C 285.700 281.570,285.148 282.520,284.350 283.315 C 282.872 284.789,281.833 286.367,282.140 286.673 C 282.247 286.781,282.935 286.291,283.668 285.586 C 284.400 284.880,285.405 284.034,285.900 283.705 C 286.395 283.377,286.800 282.859,286.800 282.554 C 286.800 282.249,286.980 282.000,287.200 282.000 C 287.420 282.000,287.600 281.730,287.600 281.400 C 287.600 281.070,287.330 280.800,287.000 280.800 C 286.670 280.800,286.400 280.600,286.400 280.357 C 286.400 280.083,286.784 280.010,287.400 280.164 C 288.219 280.370,288.400 280.269,288.400 279.608 C 288.400 279.163,288.580 278.800,288.800 278.800 C 289.020 278.800,289.200 278.440,289.200 278.000 C 289.200 277.560,289.380 277.200,289.600 277.200 C 289.820 277.200,290.000 276.480,290.000 275.600 C 290.000 274.720,290.180 274.000,290.400 274.000 C 290.975 274.000,290.894 269.748,290.300 268.742 C 289.900 268.065,289.900 267.859,290.300 267.714 C 290.575 267.615,290.800 266.933,290.800 266.200 C 290.800 265.467,290.575 264.785,290.300 264.686 C 289.900 264.541,289.900 264.335,290.300 263.658 C 290.901 262.639,290.952 261.600,290.400 261.600 C 290.180 261.600,290.000 261.330,290.000 261.000 C 290.000 260.670,290.180 260.400,290.400 260.400 C 290.620 260.400,290.800 260.130,290.800 259.800 C 290.800 259.470,290.620 259.200,290.400 259.200 C 289.823 259.200,289.907 257.710,290.500 257.433 C 290.900 257.247,290.900 257.153,290.500 256.967 C 290.182 256.818,290.000 255.868,290.000 254.361 C 290.000 253.057,290.225 251.626,290.500 251.182 C 290.912 250.517,290.895 250.310,290.400 250.000 C 289.905 249.690,289.888 249.483,290.300 248.818 C 290.895 247.857,290.971 244.800,290.400 244.800 C 290.180 244.800,290.000 244.530,290.000 244.200 C 290.000 243.870,290.180 243.600,290.400 243.600 C 290.654 243.600,290.800 240.601,290.800 235.403 L 290.800 227.205 293.191 224.777 C 294.507 223.441,295.565 222.225,295.544 222.074 C 295.430 221.269,295.685 220.871,296.440 220.674 C 296.903 220.553,297.162 220.262,297.017 220.027 C 296.872 219.792,296.925 219.600,297.136 219.600 C 297.732 219.600,300.400 216.788,300.400 216.160 C 300.400 215.852,300.547 215.600,300.726 215.600 C 301.192 215.600,302.800 212.469,302.800 211.562 C 302.800 211.143,302.980 210.800,303.200 210.800 C 303.420 210.800,303.600 210.440,303.600 210.000 C 303.600 209.560,303.780 209.200,304.000 209.200 C 304.220 209.200,304.400 208.480,304.400 207.600 C 304.400 206.720,304.563 206.000,304.761 206.000 C 305.175 206.000,305.550 203.347,305.849 198.300 C 306.031 195.240,305.974 194.800,305.401 194.800 C 304.915 194.800,304.816 194.581,305.016 193.950 C 305.184 193.421,305.081 192.956,304.743 192.720 C 304.321 192.424,304.311 192.294,304.700 192.136 C 305.561 191.787,305.262 190.133,304.214 189.446 C 302.944 188.614,302.928 188.617,302.700 189.810 M265.958 194.800 C 265.905 196.890,265.821 199.140,265.773 199.800 C 265.642 201.603,265.631 256.814,265.762 258.200 C 265.930 259.983,265.964 260.069,266.406 259.796 C 266.907 259.486,266.895 192.991,266.393 191.800 C 266.171 191.272,266.023 192.294,265.958 194.800 M256.400 197.753 C 256.400 198.083,256.580 198.464,256.800 198.600 C 257.020 198.736,257.200 198.577,257.200 198.247 C 257.200 197.917,257.020 197.536,256.800 197.400 C 256.580 197.264,256.400 197.423,256.400 197.753 M296.605 197.992 C 296.443 198.255,296.490 198.650,296.710 198.870 C 297.231 199.391,297.645 198.721,297.224 198.038 C 296.978 197.640,296.829 197.629,296.605 197.992 M297.600 199.557 C 297.600 199.753,297.150 200.026,296.600 200.164 C 295.703 200.389,295.600 200.618,295.600 202.384 C 295.600 203.467,295.420 204.464,295.200 204.600 C 294.980 204.736,294.800 205.287,294.800 205.824 C 294.800 206.361,294.601 206.800,294.358 206.800 C 294.084 206.800,293.974 207.407,294.069 208.400 C 294.180 209.570,294.072 210.000,293.667 210.000 C 293.275 210.000,293.187 210.294,293.367 211.010 C 293.595 211.920,293.525 211.996,292.658 211.779 C 291.861 211.579,291.601 211.749,291.150 212.769 C 290.850 213.446,290.328 214.000,289.991 214.000 C 289.653 214.000,289.117 214.360,288.800 214.800 C 288.483 215.240,287.903 215.600,287.512 215.600 C 287.120 215.600,286.800 215.840,286.800 216.133 C 286.800 216.961,288.436 216.643,289.231 215.661 C 289.649 215.145,290.046 214.951,290.195 215.191 C 290.573 215.803,291.200 215.684,291.200 215.000 C 291.200 214.670,291.401 214.400,291.647 214.400 C 291.903 214.400,292.000 214.043,291.875 213.564 C 291.692 212.864,291.799 212.763,292.532 212.947 C 293.409 213.167,295.200 211.240,295.200 210.075 C 295.200 209.814,295.335 209.599,295.500 209.597 C 296.286 209.589,298.717 201.821,298.472 200.100 C 298.352 199.254,297.600 198.785,297.600 199.557 M256.752 201.687 C 256.937 202.798,256.993 202.855,257.119 202.054 C 257.201 201.533,257.103 200.943,256.901 200.741 C 256.679 200.519,256.621 200.893,256.752 201.687 M284.278 217.456 C 283.824 217.909,284.420 218.400,285.424 218.400 C 286.025 218.400,286.400 218.169,286.400 217.800 C 286.400 217.201,284.793 216.941,284.278 217.456 M282.925 218.278 C 283.061 218.499,282.729 218.917,282.186 219.207 C 281.030 219.826,280.718 222.400,281.800 222.400 C 282.200 222.400,282.400 222.000,282.400 221.200 C 282.400 220.540,282.559 220.000,282.753 220.000 C 283.292 220.000,283.583 218.437,283.101 218.139 C 282.867 217.994,282.788 218.057,282.925 218.278 M257.774 245.400 C 257.775 251.120,257.831 253.404,257.899 250.476 C 257.968 247.548,257.967 242.868,257.899 240.076 C 257.830 237.284,257.774 239.680,257.774 245.400 M290.520 254.000 C 290.520 255.210,290.595 255.705,290.687 255.100 C 290.778 254.495,290.778 253.505,290.687 252.900 C 290.595 252.295,290.520 252.790,290.520 254.000 M265.392 261.911 C 264.225 262.738,263.469 267.225,264.400 267.800 C 265.076 268.218,264.844 268.800,264.000 268.800 C 263.203 268.800,262.960 269.226,263.468 269.734 C 263.615 269.881,264.065 269.703,264.468 269.339 C 265.247 268.634,265.557 265.332,264.800 265.800 C 264.075 266.248,264.384 265.508,265.228 264.776 C 266.087 264.031,266.243 261.308,265.392 261.911 M280.470 271.587 C 280.441 272.361,280.233 273.056,280.009 273.130 C 279.428 273.324,279.501 275.093,280.100 275.335 C 280.375 275.446,280.195 275.551,279.700 275.568 C 279.077 275.590,278.800 275.846,278.800 276.400 C 278.800 276.900,278.533 277.200,278.088 277.200 C 277.697 277.200,277.117 277.560,276.800 278.000 C 276.483 278.440,275.903 278.800,275.512 278.800 C 275.120 278.800,274.800 278.980,274.800 279.200 C 274.800 279.420,274.260 279.600,273.600 279.600 C 272.940 279.600,272.400 279.780,272.400 280.000 C 272.400 280.220,271.860 280.400,271.200 280.400 C 270.540 280.400,270.000 280.580,270.000 280.800 C 270.000 281.020,269.717 281.200,269.371 281.200 C 268.204 281.200,267.600 282.281,267.600 284.371 C 267.600 285.487,267.758 286.400,267.951 286.400 C 268.514 286.400,269.292 285.272,269.026 284.842 C 268.740 284.380,272.758 281.938,275.028 281.194 C 277.014 280.543,278.400 279.650,278.400 279.021 C 278.400 278.753,279.075 277.919,279.900 277.167 C 282.850 274.479,283.377 272.685,281.661 271.179 L 280.523 270.180 280.470 271.587 M262.600 271.200 C 262.780 271.768,262.672 272.000,262.227 272.000 C 261.882 272.000,261.600 272.270,261.600 272.600 C 261.600 272.930,261.870 273.200,262.200 273.200 C 262.530 273.200,262.800 272.919,262.800 272.576 C 262.800 272.233,262.942 272.040,263.115 272.148 C 263.288 272.255,263.466 271.905,263.511 271.371 C 263.564 270.725,263.383 270.400,262.969 270.400 C 262.528 270.400,262.420 270.634,262.600 271.200 M260.892 274.075 C 261.139 274.817,262.000 274.940,262.000 274.233 C 262.000 273.885,261.715 273.600,261.367 273.600 C 261.018 273.600,260.805 273.814,260.892 274.075 M99.600 275.376 C 99.600 275.693,99.769 276.057,99.976 276.185 C 100.182 276.313,100.324 276.053,100.291 275.609 C 100.222 274.695,99.600 274.486,99.600 275.376 M259.252 275.900 C 259.445 277.228,258.784 278.400,257.843 278.400 C 256.803 278.400,255.200 279.932,255.200 280.926 C 255.200 281.308,254.889 281.600,254.480 281.600 C 253.515 281.600,252.800 282.371,252.800 283.411 C 252.800 284.128,252.612 284.234,251.600 284.085 C 250.590 283.937,250.400 284.043,250.400 284.755 C 250.400 285.333,250.148 285.600,249.600 285.600 C 249.156 285.600,248.800 285.867,248.800 286.200 C 248.800 287.054,250.097 286.942,251.108 286.000 C 251.580 285.560,252.119 285.200,252.305 285.200 C 252.941 285.200,255.600 282.494,255.600 281.846 C 255.600 281.491,255.879 281.200,256.219 281.200 C 256.930 281.200,260.400 277.671,260.400 276.948 C 260.400 276.683,260.612 276.396,260.871 276.310 C 261.586 276.071,260.863 275.200,259.951 275.200 C 259.416 275.200,259.184 275.432,259.252 275.900 M114.655 279.400 C 114.782 279.730,115.082 280.000,115.323 280.000 C 115.615 280.000,115.601 280.159,115.280 280.480 C 113.946 281.814,115.515 282.027,128.400 282.263 C 137.915 282.438,143.645 282.207,142.000 281.716 C 141.670 281.617,141.153 281.458,140.852 281.362 C 140.550 281.266,137.715 281.146,134.553 281.094 C 131.390 281.042,128.801 280.865,128.801 280.700 C 128.800 280.535,128.620 280.400,128.400 280.400 C 128.180 280.400,128.045 280.614,128.100 280.876 C 128.229 281.488,122.413 281.449,121.256 280.830 C 120.186 280.257,120.000 280.286,120.000 281.024 C 120.000 281.367,119.817 281.534,119.593 281.396 C 119.370 281.258,119.285 280.986,119.405 280.792 C 119.719 280.284,118.253 279.600,116.850 279.600 C 116.188 279.600,115.536 279.420,115.400 279.200 C 115.010 278.570,114.400 278.734,114.655 279.400 M123.507 280.690 C 124.226 280.779,125.306 280.777,125.907 280.686 C 126.508 280.595,125.920 280.522,124.600 280.524 C 123.280 280.526,122.788 280.601,123.507 280.690 M157.600 281.033 C 157.600 281.382,157.814 281.595,158.075 281.508 C 158.817 281.261,158.940 280.400,158.233 280.400 C 157.885 280.400,157.600 280.685,157.600 281.033 M172.678 280.656 C 172.358 280.975,172.719 281.600,173.224 281.600 C 173.431 281.600,173.600 281.330,173.600 281.000 C 173.600 280.381,173.128 280.205,172.678 280.656 M175.200 281.000 C 175.200 281.450,175.675 281.598,177.100 281.594 C 179.651 281.586,180.555 280.996,178.531 280.662 C 176.079 280.257,175.200 280.346,175.200 281.000 M183.905 281.083 C 184.402 281.179,185.122 281.175,185.505 281.075 C 185.887 280.975,185.480 280.896,184.600 280.901 C 183.720 280.905,183.407 280.987,183.905 281.083 M143.700 281.876 C 144.085 281.976,144.715 281.976,145.100 281.876 C 145.485 281.775,145.170 281.693,144.400 281.693 C 143.630 281.693,143.315 281.775,143.700 281.876 M192.486 282.338 C 191.933 282.690,192.236 284.000,192.871 284.000 C 193.730 284.000,194.568 282.751,193.965 282.370 C 193.271 281.931,193.133 281.928,192.486 282.338 M195.600 283.400 C 195.600 283.730,195.780 284.000,196.000 284.000 C 196.220 284.000,196.400 283.730,196.400 283.400 C 196.400 283.070,196.220 282.800,196.000 282.800 C 195.780 282.800,195.600 283.070,195.600 283.400 M107.113 284.945 C 106.991 285.583,107.184 286.047,107.708 286.375 C 108.135 286.641,108.372 286.678,108.235 286.457 C 108.099 286.236,108.170 285.942,108.394 285.804 C 108.618 285.665,108.977 286.013,109.191 286.576 C 109.405 287.139,109.835 287.600,110.147 287.600 C 110.459 287.600,110.817 287.867,110.942 288.193 C 111.072 288.531,111.435 288.685,111.785 288.550 C 112.123 288.421,112.400 288.514,112.400 288.757 C 112.400 289.555,115.525 289.288,115.972 288.453 C 116.474 287.515,116.168 287.200,114.757 287.200 C 114.147 287.200,113.548 287.040,113.427 286.844 C 113.306 286.649,112.741 286.372,112.171 286.228 C 111.600 286.085,110.432 285.525,109.575 284.984 C 107.641 283.763,107.339 283.759,107.113 284.945 M192.800 286.024 C 192.470 286.231,191.705 286.576,191.100 286.790 C 189.853 287.232,189.766 287.527,190.560 288.613 C 191.067 289.306,191.220 289.324,192.184 288.808 C 192.988 288.379,193.424 288.347,193.958 288.681 C 194.482 289.008,194.668 289.004,194.673 288.662 C 194.676 288.408,194.811 287.615,194.971 286.900 C 195.283 285.513,194.267 285.103,192.800 286.024 M280.000 286.967 C 280.000 287.315,280.285 287.600,280.633 287.600 C 281.340 287.600,281.217 286.739,280.475 286.492 C 280.214 286.405,280.000 286.618,280.000 286.967 M244.800 287.800 C 244.800 288.130,245.149 288.400,245.576 288.400 C 246.582 288.400,246.979 287.754,246.165 287.442 C 245.166 287.059,244.800 287.155,244.800 287.800 M278.400 287.832 C 278.400 288.326,278.138 288.406,277.200 288.200 C 276.262 287.994,276.000 288.074,276.000 288.568 C 276.000 289.347,277.513 289.392,278.500 288.643 C 279.262 288.065,279.441 287.200,278.800 287.200 C 278.580 287.200,278.400 287.484,278.400 287.832 M222.196 288.407 C 222.058 288.630,221.749 288.692,221.511 288.545 C 221.251 288.385,221.191 288.463,221.362 288.738 C 221.519 288.992,222.076 289.200,222.600 289.200 C 223.124 289.200,223.664 289.380,223.800 289.600 C 223.936 289.820,224.397 290.000,224.824 290.000 C 225.251 290.000,225.600 289.820,225.600 289.600 C 225.600 289.380,225.791 289.200,226.024 289.200 C 226.257 289.200,226.336 289.380,226.200 289.600 C 226.064 289.820,226.143 290.000,226.376 290.000 C 226.609 290.000,226.800 289.707,226.800 289.349 C 226.800 288.816,226.517 288.743,225.242 288.947 C 224.062 289.136,223.628 289.051,223.455 288.598 C 223.190 287.909,222.562 287.814,222.196 288.407 M242.531 288.743 C 242.357 289.408,242.190 289.475,241.612 289.115 C 240.843 288.634,239.600 288.926,239.600 289.587 C 239.600 290.118,242.273 290.129,242.600 289.600 C 242.736 289.380,243.212 289.200,243.657 289.200 C 244.628 289.200,244.447 288.261,243.439 288.065 C 243.007 287.982,242.663 288.238,242.531 288.743 M268.620 288.368 C 268.315 288.861,269.360 289.395,269.936 289.040 C 270.141 288.913,270.532 289.077,270.804 289.404 C 271.358 290.072,274.800 290.247,274.800 289.608 C 274.800 289.054,272.990 288.666,271.800 288.964 C 271.177 289.121,270.800 289.046,270.800 288.765 C 270.800 288.517,270.552 288.410,270.249 288.526 C 269.946 288.642,269.516 288.556,269.294 288.334 C 269.022 288.062,268.802 288.074,268.620 288.368 M116.639 289.094 C 116.158 289.576,116.420 290.000,117.200 290.000 C 117.640 290.000,118.000 289.839,118.000 289.643 C 118.000 289.193,116.960 288.774,116.639 289.094 M229.467 289.867 C 228.714 290.619,229.619 290.799,234.100 290.787 C 238.496 290.776,238.920 290.714,238.224 290.187 C 237.419 289.579,230.025 289.308,229.467 289.867 " stroke="none" fill="#396f55" fill-rule="evenodd"></path><path id="path3" d="M229.790 224.430 C 229.531 225.248,229.797 225.936,230.213 225.521 C 230.329 225.404,230.499 224.924,230.590 224.454 C 230.801 223.356,230.138 223.337,229.790 224.430 M230.995 224.009 C 230.566 224.702,231.804 224.891,236.337 224.826 C 241.177 224.757,242.927 224.530,242.607 224.011 C 242.349 223.594,231.253 223.591,230.995 224.009 M226.152 224.981 C 225.848 225.774,226.298 226.400,227.175 226.400 C 228.056 226.400,228.968 225.395,228.611 224.818 C 228.225 224.193,226.408 224.314,226.152 224.981 M242.943 225.005 C 242.543 226.046,243.584 226.800,245.420 226.800 C 246.418 226.800,247.395 227.052,247.743 227.400 C 248.073 227.730,248.626 228.000,248.971 228.000 C 249.317 228.000,249.600 228.195,249.600 228.433 C 249.600 228.672,249.809 228.797,250.064 228.712 C 250.319 228.627,251.174 229.161,251.964 229.898 C 253.107 230.964,253.668 231.209,254.713 231.098 C 255.703 230.992,255.973 231.094,255.813 231.512 C 255.696 231.816,255.600 232.218,255.600 232.405 C 255.600 232.592,255.195 232.811,254.700 232.893 C 253.888 233.028,253.937 233.112,255.214 233.754 L 256.627 234.466 256.714 242.733 C 256.762 247.280,256.612 252.350,256.382 254.000 C 256.152 255.650,255.826 258.350,255.656 260.000 C 255.430 262.201,255.062 263.451,254.274 264.692 C 253.683 265.623,253.200 266.647,253.200 266.968 C 253.200 267.290,253.007 267.672,252.772 267.817 C 252.067 268.253,251.657 269.756,252.095 270.300 C 252.371 270.642,252.356 270.800,252.049 270.800 C 251.802 270.800,251.600 271.038,251.600 271.330 C 251.600 271.917,247.333 276.128,245.300 277.547 C 244.585 278.046,244.000 278.262,244.000 278.027 C 244.000 277.792,243.820 277.600,243.600 277.600 C 243.380 277.600,243.200 278.022,243.200 278.538 C 243.200 279.679,241.872 280.962,240.634 281.016 C 240.135 281.038,239.159 281.459,238.466 281.953 C 237.773 282.447,236.997 282.722,236.742 282.564 C 236.487 282.407,236.041 282.603,235.750 283.001 C 235.327 283.580,234.358 283.790,230.910 284.053 C 228.540 284.233,226.207 284.475,225.728 284.591 C 225.248 284.707,224.352 284.610,223.736 284.376 C 222.924 284.067,222.575 284.074,222.467 284.399 C 222.371 284.686,222.021 284.586,221.500 284.124 C 220.935 283.623,220.632 283.547,220.516 283.878 C 220.400 284.208,219.723 284.282,218.335 284.118 C 216.355 283.883,215.624 284.227,215.606 285.400 C 215.596 286.045,228.474 285.784,232.230 285.063 C 236.787 284.189,241.188 282.382,243.766 280.329 C 249.867 275.470,252.347 272.653,254.453 268.191 C 258.564 259.483,259.046 230.000,255.078 230.000 C 254.582 230.000,253.917 229.640,253.600 229.200 C 253.283 228.760,252.783 228.400,252.488 228.400 C 252.194 228.400,252.045 228.250,252.159 228.067 C 252.272 227.883,252.134 227.733,251.851 227.733 C 251.569 227.733,250.469 227.136,249.407 226.405 C 248.345 225.674,247.621 225.329,247.797 225.638 C 248.056 226.093,248.014 226.104,247.579 225.700 C 247.282 225.425,246.731 225.200,246.353 225.200 C 245.976 225.200,245.576 225.425,245.465 225.700 C 245.354 225.975,245.249 225.795,245.232 225.300 C 245.194 224.235,243.330 223.995,242.943 225.005 M222.203 225.596 C 222.065 225.818,221.603 226.000,221.176 226.000 C 220.749 226.000,220.400 226.180,220.400 226.400 C 220.400 226.620,219.942 226.800,219.383 226.800 C 218.824 226.800,217.980 227.160,217.508 227.600 C 217.036 228.040,216.413 228.400,216.125 228.400 C 215.836 228.400,215.600 228.580,215.600 228.800 C 215.600 229.020,215.359 229.200,215.064 229.200 C 214.415 229.200,211.220 232.171,210.224 233.700 C 209.830 234.305,209.340 234.800,209.135 234.800 C 208.010 234.800,204.839 238.988,205.700 239.335 C 206.030 239.468,205.987 239.548,205.575 239.568 C 204.762 239.609,202.441 242.000,203.214 242.000 C 203.555 242.000,203.419 242.252,202.870 242.636 C 202.205 243.102,202.074 243.407,202.380 243.775 C 202.682 244.140,202.577 244.478,201.999 245.001 C 201.559 245.399,201.200 246.146,201.200 246.662 C 201.200 247.178,201.020 247.600,200.800 247.600 C 200.580 247.600,200.400 248.140,200.400 248.800 C 200.400 251.031,202.146 249.755,202.315 247.400 C 202.390 246.367,202.730 245.547,203.275 245.088 C 204.100 244.392,204.102 244.362,203.360 243.800 C 202.942 243.484,202.818 243.220,203.084 243.213 C 203.952 243.190,205.215 241.488,205.006 240.622 C 204.897 240.170,204.911 240.025,205.037 240.300 C 205.348 240.978,206.194 240.930,206.800 240.200 C 207.184 239.738,207.190 239.470,206.826 239.031 C 206.439 238.565,206.502 238.502,207.177 238.678 C 207.633 238.797,208.000 238.700,208.000 238.461 C 208.000 238.223,208.540 237.413,209.200 236.661 C 209.860 235.909,210.400 235.093,210.400 234.847 C 210.400 234.601,210.670 234.378,211.000 234.350 C 212.258 234.245,212.400 234.189,212.384 233.800 C 212.376 233.580,212.946 233.310,213.652 233.200 C 214.950 232.998,215.785 232.000,214.657 232.000 C 214.322 232.000,213.932 231.813,213.790 231.584 C 213.623 231.314,213.896 231.259,214.566 231.427 C 215.236 231.595,215.600 231.522,215.600 231.220 C 215.600 230.963,215.771 230.858,215.980 230.988 C 216.461 231.285,217.156 229.979,216.899 229.258 C 216.758 228.864,216.937 228.790,217.553 228.985 C 218.176 229.183,218.400 229.084,218.400 228.612 C 218.400 228.097,218.718 228.008,220.011 228.164 C 221.115 228.297,221.536 228.221,221.351 227.921 C 221.169 227.626,221.411 227.566,222.095 227.738 C 222.906 227.942,223.153 227.824,223.330 227.147 C 223.510 226.459,223.762 226.345,224.675 226.535 C 225.294 226.663,225.575 226.670,225.300 226.551 C 225.025 226.431,224.800 226.117,224.800 225.852 C 224.800 225.259,222.548 225.037,222.203 225.596 M207.200 240.229 C 207.200 240.653,208.436 241.697,208.667 241.467 C 208.792 241.341,208.617 240.960,208.276 240.619 C 207.641 239.984,207.200 239.824,207.200 240.229 M199.812 251.181 C 199.476 251.724,199.635 259.600,199.982 259.600 C 201.109 259.600,201.340 258.082,201.078 252.367 C 201.020 251.091,200.290 250.407,199.812 251.181 M199.877 262.372 C 199.997 262.832,200.306 263.057,200.639 262.930 C 201.472 262.610,201.318 261.600,200.437 261.600 C 199.881 261.600,199.729 261.809,199.877 262.372 M200.400 265.415 C 200.400 266.592,200.526 266.837,201.033 266.643 C 201.381 266.509,201.843 266.400,202.059 266.400 C 202.927 266.400,202.210 264.201,201.300 264.072 C 200.507 263.960,200.400 264.119,200.400 265.415 M201.309 267.990 C 201.342 268.424,201.578 268.860,201.835 268.958 C 202.093 269.057,202.217 269.577,202.113 270.122 C 202.009 270.663,202.122 271.228,202.362 271.377 C 202.603 271.525,202.800 271.997,202.800 272.424 C 202.800 272.851,202.980 273.200,203.200 273.200 C 203.420 273.200,203.600 273.483,203.600 273.829 C 203.600 274.643,204.680 275.721,205.184 275.410 C 205.923 274.953,204.529 270.323,203.412 269.522 C 203.198 269.369,203.147 269.120,203.298 268.969 C 203.763 268.503,202.815 267.200,202.011 267.200 C 201.500 267.200,201.269 267.459,201.309 267.990 M206.448 275.726 C 205.809 277.332,205.850 277.477,207.360 278.986 C 208.332 279.959,208.959 280.284,209.560 280.126 C 210.523 279.875,210.698 279.200,209.800 279.200 C 209.470 279.200,209.200 278.944,209.200 278.631 C 209.200 278.318,208.777 277.553,208.260 276.931 C 207.742 276.309,207.224 275.530,207.107 275.200 C 206.957 274.774,206.766 274.927,206.448 275.726 M210.208 281.186 C 209.926 281.644,212.735 284.400,213.483 284.400 C 213.768 284.400,214.000 284.580,214.000 284.800 C 214.000 285.020,214.270 285.200,214.600 285.200 C 214.930 285.200,215.200 285.035,215.200 284.833 C 215.200 284.631,215.309 284.181,215.443 283.833 C 215.615 283.383,215.449 283.200,214.866 283.200 C 214.416 283.200,213.936 283.020,213.800 282.800 C 213.664 282.580,213.247 282.400,212.873 282.400 C 212.499 282.400,211.968 282.040,211.693 281.600 C 211.151 280.733,210.586 280.575,210.208 281.186 " stroke="none" fill="#0bc094" fill-rule="evenodd"></path><path id="path4" d="M167.855 131.055 C 167.275 131.635,166.800 132.355,166.800 132.655 C 166.800 132.955,166.620 133.200,166.400 133.200 C 165.220 133.200,165.979 139.020,167.354 140.522 L 168.708 142.000 172.154 142.000 C 174.185 142.000,175.600 141.836,175.600 141.600 C 175.600 141.380,175.857 141.200,176.171 141.200 C 177.923 141.200,178.810 133.960,177.200 132.800 C 176.760 132.483,176.400 131.968,176.400 131.656 C 176.400 129.692,169.690 129.219,167.855 131.055 M256.544 200.702 L 256.523 203.000 256.911 201.069 C 257.145 199.898,257.153 198.993,256.931 198.771 C 256.709 198.549,256.556 199.309,256.544 200.702 M256.428 204.276 C 256.413 204.758,256.580 205.264,256.800 205.400 C 257.273 205.692,257.273 205.301,256.800 204.200 C 256.469 203.429,256.455 203.431,256.428 204.276 M253.200 228.629 C 253.200 228.927,254.275 230.000,254.575 230.000 C 254.702 230.000,254.582 229.640,254.307 229.200 C 253.838 228.449,253.200 228.120,253.200 228.629 M256.667 229.467 C 256.257 229.877,256.351 231.522,256.800 231.800 C 257.038 231.947,257.200 231.471,257.200 230.624 C 257.200 229.162,257.128 229.005,256.667 229.467 M290.000 244.200 C 290.000 244.530,290.180 244.800,290.400 244.800 C 290.620 244.800,290.800 244.530,290.800 244.200 C 290.800 243.870,290.620 243.600,290.400 243.600 C 290.180 243.600,290.000 243.870,290.000 244.200 M290.212 248.917 C 290.041 249.312,290.013 249.747,290.151 249.884 C 290.557 250.290,290.884 249.720,290.697 248.931 C 290.532 248.233,290.510 248.232,290.212 248.917 M290.037 253.586 C 290.000 255.354,290.111 256.800,290.284 256.800 C 290.618 256.800,290.632 250.899,290.300 250.567 C 290.193 250.460,290.075 251.819,290.037 253.586 M257.013 257.813 C 256.857 259.271,256.820 260.553,256.930 260.663 C 257.040 260.773,257.257 259.671,257.413 258.213 C 257.569 256.756,257.607 255.474,257.497 255.364 C 257.387 255.254,257.169 256.356,257.013 257.813 M290.000 258.400 C 290.000 258.840,290.180 259.200,290.400 259.200 C 290.620 259.200,290.800 258.840,290.800 258.400 C 290.800 257.960,290.620 257.600,290.400 257.600 C 290.180 257.600,290.000 257.960,290.000 258.400 M290.000 261.000 C 290.000 261.330,290.180 261.600,290.400 261.600 C 290.620 261.600,290.800 261.330,290.800 261.000 C 290.800 260.670,290.620 260.400,290.400 260.400 C 290.180 260.400,290.000 260.670,290.000 261.000 M256.178 262.578 C 256.027 263.381,255.994 264.127,256.104 264.237 C 256.214 264.347,256.427 263.781,256.578 262.978 C 256.728 262.175,256.762 261.428,256.652 261.318 C 256.542 261.208,256.328 261.775,256.178 262.578 M290.212 263.717 C 290.041 264.112,290.013 264.547,290.151 264.684 C 290.557 265.090,290.884 264.520,290.697 263.731 C 290.532 263.033,290.510 263.032,290.212 263.717 M255.628 265.200 C 255.608 265.530,255.152 266.745,254.614 267.900 C 254.077 269.055,253.728 270.000,253.841 270.000 C 254.238 270.000,256.060 265.582,255.863 265.095 C 255.729 264.762,255.652 264.796,255.628 265.200 M290.000 268.176 C 290.000 268.493,290.180 268.864,290.400 269.000 C 290.620 269.136,290.800 268.877,290.800 268.424 C 290.800 267.971,290.620 267.600,290.400 267.600 C 290.180 267.600,290.000 267.859,290.000 268.176 M252.315 271.892 C 251.764 272.721,250.441 274.390,249.376 275.600 C 248.220 276.913,247.973 277.316,248.762 276.600 C 250.359 275.150,253.757 270.824,253.501 270.567 C 253.400 270.466,252.866 271.062,252.315 271.892 M245.960 278.534 C 242.703 281.245,242.255 281.647,242.800 281.366 C 243.130 281.196,244.210 280.420,245.200 279.642 C 246.190 278.864,247.075 278.177,247.167 278.114 C 247.258 278.051,247.258 277.925,247.167 277.834 C 247.075 277.743,246.532 278.058,245.960 278.534 M240.400 282.400 C 239.630 282.822,239.144 283.174,239.320 283.183 C 239.744 283.205,242.000 282.032,242.000 281.790 C 242.000 281.528,241.977 281.537,240.400 282.400 M231.400 285.200 C 230.322 285.474,230.302 285.506,231.200 285.513 C 231.750 285.517,232.650 285.376,233.200 285.200 C 234.544 284.769,233.092 284.769,231.400 285.200 M216.842 285.966 C 216.247 286.342,216.504 287.600,217.175 287.600 C 217.395 287.600,217.464 287.312,217.329 286.960 C 217.194 286.607,217.335 286.160,217.642 285.966 C 217.949 285.771,218.020 285.612,217.800 285.612 C 217.580 285.612,217.149 285.771,216.842 285.966 M220.300 285.882 C 220.795 285.978,221.605 285.978,222.100 285.882 C 222.595 285.787,222.190 285.709,221.200 285.709 C 220.210 285.709,219.805 285.787,220.300 285.882 M224.600 286.000 L 223.000 286.286 224.600 286.314 C 225.480 286.329,227.010 286.197,228.000 286.020 L 229.800 285.700 228.000 285.707 C 227.010 285.711,225.480 285.842,224.600 286.000 " stroke="none" fill="#5c9270" fill-rule="evenodd"></path></g></svg>