<svg xmlns="http://www.w3.org/2000/svg" height="200" width="200" viewBox="0 0 61 61" shape-rendering="crispEdges"><path fill="#ffffff" d="M0 0h61v61H0z"/><path stroke="#000000" d="M2 2.5h7m3 0h3m2 0h3m3 0h1m1 0h3m4 0h1m1 0h6m1 0h2m1 0h6m2 0h7M2 3.5h1m5 0h1m2 0h1m2 0h6m2 0h2m1 0h3m5 0h1m2 0h4m2 0h1m1 0h1m4 0h1m2 0h1m5 0h1M2 4.5h1m1 0h3m1 0h1m2 0h1m7 0h1m1 0h3m1 0h3m2 0h2m3 0h2m2 0h3m3 0h2m1 0h2m2 0h1m1 0h3m1 0h1M2 5.5h1m1 0h3m1 0h1m2 0h1m2 0h8m4 0h1m2 0h1m1 0h5m2 0h2m5 0h1m3 0h1m2 0h1m1 0h3m1 0h1M2 6.5h1m1 0h3m1 0h1m1 0h3m2 0h1m2 0h4m2 0h1m1 0h7m1 0h2m3 0h4m2 0h3m1 0h1m2 0h1m1 0h3m1 0h1M2 7.5h1m5 0h1m7 0h4m1 0h1m1 0h3m2 0h1m3 0h3m1 0h1m1 0h3m1 0h4m2 0h1m3 0h1m5 0h1M2 8.5h7m1 0h1m1 0h1m1 0h1m1 0h1m1 0h1m1 0h1m1 0h1m1 0h1m1 0h1m1 0h1m1 0h1m1 0h1m1 0h1m1 0h1m1 0h1m1 0h1m1 0h1m1 0h1m1 0h1m1 0h1m1 0h1m1 0h7M10 9.5h6m5 0h1m1 0h3m1 0h2m3 0h2m1 0h2m3 0h4m1 0h6M4 10.5h2m2 0h4m1 0h1m3 0h2m1 0h1m1 0h2m1 0h2m1 0h7m1 0h1m1 0h1m2 0h2m2 0h1m4 0h3m1 0h1M2 11.5h2m1 0h1m1 0h1m2 0h1m1 0h1m2 0h1m1 0h2m1 0h2m5 0h2m2 0h1m3 0h2m1 0h1m5 0h2m2 0h3m2 0h6M3 12.5h6m2 0h1m1 0h2m2 0h2m1 0h1m1 0h2m2 0h3m1 0h1m1 0h3m1 0h1m2 0h3m2 0h1m1 0h1m2 0h1m1 0h1m1 0h1m1 0h4M6 13.5h2m1 0h3m2 0h2m1 0h3m2 0h4m2 0h2m2 0h2m1 0h1m2 0h4m1 0h1m2 0h1m1 0h2m7 0h2M2 14.5h1m1 0h1m1 0h1m1 0h1m3 0h6m5 0h1m1 0h4m2 0h2m1 0h1m1 0h1m3 0h2m2 0h1m7 0h1m2 0h1m2 0h1M4 15.5h1m4 0h1m1 0h1m1 0h1m1 0h2m1 0h2m1 0h7m2 0h4m1 0h1m4 0h3m2 0h3m3 0h2m2 0h3M2 16.5h1m1 0h2m2 0h2m1 0h1m2 0h1m1 0h3m1 0h1m1 0h1m2 0h2m1 0h3m1 0h1m2 0h2m1 0h1m1 0h1m1 0h1m1 0h2m1 0h1m2 0h1m1 0h6M3 17.5h3m1 0h1m2 0h2m2 0h6m1 0h1m1 0h2m1 0h2m1 0h5m1 0h4m1 0h1m1 0h5m2 0h4m2 0h3M2 18.5h2m1 0h2m1 0h1m2 0h3m1 0h1m2 0h1m1 0h1m1 0h1m3 0h7m1 0h1m1 0h5m5 0h1m1 0h3m5 0h2M2 19.5h1m2 0h1m4 0h1m1 0h1m1 0h1m1 0h1m1 0h1m2 0h1m1 0h4m3 0h1m5 0h4m1 0h3m2 0h4m3 0h2m1 0h1m1 0h1M8 20.5h1m5 0h1m5 0h5m1 0h1m1 0h2m3 0h1m1 0h3m1 0h2m4 0h1m2 0h1m2 0h3m1 0h2M2 21.5h3m1 0h1m2 0h1m3 0h1m3 0h5m1 0h1m2 0h2m1 0h1m3 0h3m2 0h1m2 0h4m2 0h1m1 0h1m1 0h4m2 0h1M2 22.5h5m1 0h5m4 0h1m3 0h2m2 0h1m1 0h3m1 0h5m1 0h3m1 0h2m4 0h2m1 0h2m1 0h2m1 0h3M3 23.5h2m2 0h1m2 0h1m1 0h2m1 0h1m1 0h2m1 0h1m1 0h1m1 0h1m1 0h1m1 0h1m3 0h3m1 0h1m1 0h2m2 0h3m4 0h3m1 0h1m2 0h1m1 0h1M2 24.5h2m1 0h1m2 0h1m1 0h1m4 0h1m1 0h4m3 0h2m6 0h2m1 0h2m4 0h1m1 0h4m1 0h2m1 0h1m5 0h2M4 25.5h1m1 0h1m2 0h1m1 0h1m1 0h1m9 0h4m1 0h2m1 0h1m2 0h7m1 0h3m1 0h2m1 0h1m1 0h1m5 0h1M4 26.5h1m1 0h1m1 0h3m1 0h2m1 0h1m1 0h3m2 0h3m1 0h2m3 0h1m3 0h5m2 0h1m2 0h1m5 0h2m2 0h2M3 27.5h1m1 0h1m3 0h1m3 0h2m1 0h2m1 0h2m1 0h1m1 0h1m3 0h4m1 0h2m1 0h2m2 0h1m1 0h1m1 0h4m3 0h2m1 0h1m3 0h1M5 28.5h6m2 0h2m1 0h2m1 0h1m1 0h1m1 0h3m2 0h5m3 0h1m3 0h2m5 0h1m2 0h7m1 0h1M3 29.5h4m3 0h2m2 0h1m2 0h3m2 0h2m1 0h2m1 0h1m3 0h3m1 0h2m1 0h1m2 0h2m1 0h4m1 0h1m3 0h3m1 0h1M3 30.5h4m1 0h1m1 0h3m4 0h1m3 0h5m2 0h1m1 0h1m1 0h3m5 0h1m2 0h2m1 0h1m1 0h3m1 0h1m1 0h4M5 31.5h2m3 0h2m3 0h5m2 0h3m3 0h1m3 0h1m3 0h1m4 0h1m1 0h1m1 0h1m2 0h3m3 0h1m3 0h1M3 32.5h8m1 0h3m1 0h1m1 0h1m1 0h3m2 0h2m1 0h6m3 0h2m1 0h1m5 0h1m1 0h7M3 33.5h2m4 0h1m4 0h4m2 0h2m1 0h1m1 0h1m5 0h2m1 0h1m1 0h1m1 0h5m4 0h2m5 0h2m1 0h1M2 34.5h1m1 0h1m2 0h4m1 0h1m1 0h5m3 0h1m1 0h1m1 0h1m2 0h2m5 0h1m1 0h1m1 0h4m7 0h3m1 0h3M2 35.5h1m4 0h1m1 0h1m4 0h1m2 0h1m3 0h6m2 0h1m2 0h3m3 0h2m3 0h2m1 0h2m1 0h2m2 0h1m4 0h1M2 36.5h2m1 0h1m2 0h1m1 0h2m4 0h3m1 0h2m1 0h2m1 0h1m3 0h3m1 0h1m2 0h1m1 0h1m1 0h12m4 0h2M2 37.5h1m1 0h1m1 0h1m2 0h1m2 0h1m1 0h1m9 0h1m1 0h1m2 0h2m1 0h1m1 0h3m6 0h1m2 0h1m4 0h5m1 0h2M3 38.5h3m1 0h8m1 0h1m1 0h1m3 0h7m2 0h3m1 0h5m3 0h1m1 0h1m2 0h1m2 0h4m2 0h1M4 39.5h4m1 0h1m1 0h1m1 0h1m1 0h2m1 0h1m7 0h3m5 0h1m1 0h1m2 0h4m3 0h2m1 0h1m3 0h1m3 0h1M3 40.5h3m2 0h2m3 0h1m10 0h2m1 0h2m1 0h2m1 0h4m3 0h1m1 0h1m1 0h4m2 0h1m1 0h4M4 41.5h3m2 0h7m1 0h1m1 0h2m2 0h2m1 0h1m1 0h3m3 0h3m1 0h3m1 0h1m4 0h1m1 0h2m2 0h1m1 0h2M2 42.5h2m4 0h1m1 0h2m1 0h2m1 0h1m1 0h1m1 0h2m3 0h1m2 0h1m2 0h2m1 0h1m2 0h1m3 0h1m1 0h1m1 0h1m1 0h1m1 0h6m1 0h3M3 43.5h1m3 0h1m2 0h1m6 0h1m1 0h1m1 0h3m1 0h1m2 0h1m2 0h1m1 0h1m1 0h3m2 0h1m1 0h2m1 0h2m1 0h2m1 0h1m1 0h3m2 0h1M3 44.5h1m1 0h5m6 0h1m1 0h2m1 0h1m3 0h2m1 0h1m2 0h2m3 0h1m1 0h1m2 0h3m1 0h2m2 0h1m1 0h1m4 0h2M3 45.5h1m1 0h1m1 0h1m1 0h4m1 0h1m1 0h2m1 0h2m2 0h1m1 0h1m1 0h1m1 0h2m10 0h2m2 0h1m4 0h2m1 0h1m3 0h1M2 46.5h1m1 0h2m2 0h4m3 0h1m1 0h1m11 0h1m2 0h1m1 0h2m1 0h1m1 0h1m2 0h1m1 0h1m2 0h2m1 0h1m2 0h1m1 0h2M6 47.5h1m3 0h2m2 0h1m2 0h1m2 0h1m2 0h3m1 0h3m1 0h3m1 0h4m5 0h1m5 0h4m1 0h2m1 0h1M2 48.5h1m1 0h1m2 0h2m3 0h3m2 0h1m5 0h1m4 0h1m1 0h2m2 0h3m3 0h1m3 0h1m1 0h7m2 0h1m1 0h2M2 49.5h5m2 0h1m2 0h5m2 0h3m1 0h2m1 0h2m1 0h2m2 0h1m2 0h1m2 0h1m1 0h1m4 0h1m2 0h2m1 0h4M8 50.5h6m3 0h1m1 0h2m2 0h1m2 0h1m1 0h7m1 0h4m3 0h3m1 0h2m1 0h5m2 0h1M10 51.5h2m2 0h3m3 0h1m1 0h2m2 0h1m1 0h1m3 0h2m1 0h2m1 0h1m1 0h3m2 0h1m4 0h1m3 0h2M2 52.5h7m1 0h1m1 0h3m3 0h2m2 0h2m2 0h1m1 0h1m1 0h1m1 0h1m1 0h5m3 0h1m1 0h2m1 0h1m2 0h1m1 0h1m1 0h3M2 53.5h1m5 0h1m2 0h2m1 0h1m1 0h3m4 0h4m1 0h1m3 0h1m2 0h1m1 0h1m2 0h1m1 0h2m1 0h3m1 0h2m3 0h3m1 0h1M2 54.5h1m1 0h3m1 0h1m2 0h2m1 0h1m5 0h1m1 0h1m4 0h6m4 0h2m1 0h2m1 0h2m1 0h9m1 0h1m1 0h1M2 55.5h1m1 0h3m1 0h1m1 0h2m1 0h6m1 0h1m1 0h1m1 0h2m1 0h5m1 0h6m4 0h1m3 0h4m4 0h3M2 56.5h1m1 0h3m1 0h1m1 0h2m2 0h3m1 0h1m1 0h2m2 0h5m1 0h2m1 0h1m3 0h2m1 0h1m1 0h2m2 0h7M2 57.5h1m5 0h1m4 0h1m1 0h1m1 0h2m1 0h2m2 0h5m1 0h2m1 0h1m7 0h1m1 0h1m1 0h1m3 0h1m2 0h2m2 0h1m1 0h1M2 58.5h7m2 0h6m2 0h1m1 0h1m3 0h1m1 0h3m2 0h1m1 0h1m2 0h4m1 0h2m1 0h1m1 0h3m2 0h1m1 0h1"/></svg>
